<?xml version="1.0" encoding="UTF-8"?>
<svg xmlns="http://www.w3.org/2000/svg" xmlns:xlink="http://www.w3.org/1999/xlink" width="750pt" height="749.999995pt" viewBox="0 0 750 749.999995" version="1.2">
<g id="surface1">
<path style=" stroke:none;fill-rule:nonzero;fill:rgb(96.859741%,67.449951%,50.19989%);fill-opacity:1;" d="M 510.65625 583.847656 L 510.171875 579.339844 L 514.296875 532.035156 L 488.019531 532.035156 L 491.40625 585.394531 C 491.40625 585.394531 500.707031 588.828125 510.65625 583.847656 "/>
<path style=" stroke:none;fill-rule:nonzero;fill:rgb(12.548828%,14.118958%,17.248535%);fill-opacity:1;" d="M 510.171875 579.339844 L 511.636719 593.042969 L 492.984375 601.535156 C 477.828125 607.03125 473.902344 609.613281 466.554688 610.019531 C 458.683594 610.457031 453.179688 610.050781 449.015625 608.101562 L 449.308594 602.640625 C 449.570312 601.96875 449.390625 601.121094 450.921875 600.4375 L 470.820312 588.953125 C 481.378906 582.855469 487.039062 577.515625 487.039062 577.515625 C 489.375 575.210938 492.644531 576.589844 492.644531 576.589844 C 499.140625 577.890625 498.597656 580.019531 498.597656 580.019531 L 496.695312 583.363281 C 496.695312 583.363281 495.84375 585.042969 498.472656 584.320312 C 498.472656 584.320312 508.746094 581.960938 510.171875 579.339844 "/>
<path style=" stroke:none;fill-rule:nonzero;fill:rgb(100%,100%,100%);fill-opacity:1;" d="M 511.371094 590.230469 L 511.847656 595.039062 L 483.328125 607.449219 C 469.433594 613.1875 462.332031 613.050781 462.332031 613.050781 C 454.492188 613.476562 451.257812 610.5625 449.015625 608.101562 L 449.277344 603.304688 C 458.824219 610.132812 461.140625 609.136719 481.867188 602.492188 L 511.371094 590.230469 "/>
<path style=" stroke:none;fill-rule:nonzero;fill:rgb(100%,100%,100%);fill-opacity:1;" d="M 463.71875 606.449219 C 463.910156 605.378906 464.015625 604.300781 463.941406 603.238281 C 463.65625 599.230469 460.28125 598.421875 457.382812 596.703125 L 450.921875 600.4375 C 449.574219 601.035156 449.554688 601.769531 449.386719 602.394531 C 450.144531 603.066406 450.957031 603.660156 451.820312 604.191406 C 452.972656 604.75 454.117188 605.359375 455.269531 605.949219 C 456.035156 606.285156 456.816406 606.609375 457.589844 606.925781 C 459.71875 607.039062 461.730469 606.988281 463.71875 606.449219 "/>
<path style=" stroke:none;fill-rule:nonzero;fill:rgb(12.548828%,14.118958%,17.248535%);fill-opacity:1;" d="M 460.828125 594.722656 C 464.160156 592.800781 467.488281 590.875 470.820312 588.953125 "/>
<path style=" stroke:none;fill-rule:nonzero;fill:rgb(8.239746%,9.01947%,10.5896%);fill-opacity:1;" d="M 497.140625 584.472656 C 497.429688 584.519531 497.847656 584.496094 498.472656 584.320312 C 498.472656 584.320312 508.746094 581.960938 510.171875 579.339844 L 511.636719 593.042969 L 492.984375 601.535156 C 477.828125 607.03125 473.902344 609.613281 466.554688 610.019531 C 465.285156 610.089844 464.101562 610.132812 462.953125 610.15625 C 463.230469 608.714844 463.53125 607.273438 463.835938 605.84375 C 464.210938 604.109375 463.933594 602.890625 468.460938 600.214844 L 497.140625 584.472656 "/>
<path style=" stroke:none;fill-rule:nonzero;fill:rgb(5.488586%,5.488586%,6.269836%);fill-opacity:1;" d="M 472.242188 601.660156 C 472.1875 601.660156 472.128906 601.65625 472.078125 601.648438 C 471.339844 601.566406 470.8125 600.890625 470.902344 600.160156 C 470.980469 599.476562 471.566406 598.96875 472.238281 598.96875 C 472.289062 598.96875 472.34375 598.976562 472.394531 598.984375 C 473.136719 599.070312 473.660156 599.742188 473.566406 600.480469 C 473.488281 601.15625 472.910156 601.660156 472.242188 601.660156 "/>
<path style=" stroke:none;fill-rule:nonzero;fill:rgb(5.488586%,5.488586%,6.269836%);fill-opacity:1;" d="M 496.582031 587.796875 C 496.527344 587.796875 496.476562 587.792969 496.421875 587.789062 C 495.683594 587.699219 495.160156 587.03125 495.25 586.289062 C 495.328125 585.613281 495.910156 585.109375 496.574219 585.109375 C 496.632812 585.109375 496.6875 585.109375 496.742188 585.117188 C 497.480469 585.207031 498 585.875 497.914062 586.613281 C 497.832031 587.292969 497.253906 587.796875 496.582031 587.796875 "/>
<path style=" stroke:none;fill-rule:nonzero;fill:rgb(67.449951%,74.508667%,77.648926%);fill-opacity:1;" d="M 470.339844 600.214844 C 470.277344 600.207031 470.21875 600.191406 470.164062 600.171875 C 466.492188 598.917969 460.433594 596.015625 460.125 595.886719 C 459.683594 595.699219 459.476562 595.195312 459.664062 594.757812 C 459.847656 594.320312 460.34375 594.109375 460.789062 594.300781 C 460.867188 594.332031 467.097656 597.316406 470.714844 598.546875 C 471.167969 598.699219 471.40625 599.179688 471.257812 599.632812 C 471.121094 600.027344 470.730469 600.261719 470.339844 600.214844 "/>
<path style=" stroke:none;fill-rule:nonzero;fill:rgb(5.488586%,5.488586%,6.269836%);fill-opacity:1;" d="M 478.957031 598.347656 C 478.90625 598.347656 478.847656 598.34375 478.792969 598.335938 C 478.054688 598.25 477.53125 597.582031 477.617188 596.84375 C 477.699219 596.164062 478.285156 595.660156 478.957031 595.660156 C 479.007812 595.660156 479.058594 595.664062 479.117188 595.671875 C 479.851562 595.757812 480.375 596.429688 480.289062 597.164062 C 480.207031 597.84375 479.628906 598.347656 478.957031 598.347656 "/>
<path style=" stroke:none;fill-rule:nonzero;fill:rgb(5.488586%,5.488586%,6.269836%);fill-opacity:1;" d="M 484.363281 595.023438 C 484.308594 595.023438 484.253906 595.019531 484.203125 595.011719 C 483.464844 594.917969 482.40625 593.777344 482.5 593.039062 C 482.566406 592.464844 483.308594 592.308594 483.984375 592.308594 C 484.175781 592.308594 484.359375 592.324219 484.519531 592.34375 C 485.257812 592.433594 485.785156 593.105469 485.695312 593.835938 C 485.613281 594.519531 485.03125 595.023438 484.363281 595.023438 "/>
<path style=" stroke:none;fill-rule:nonzero;fill:rgb(5.488586%,5.488586%,6.269836%);fill-opacity:1;" d="M 490.84375 591.460938 C 490.792969 591.460938 490.738281 591.460938 490.683594 591.453125 C 489.949219 591.367188 489.425781 590.695312 489.511719 589.960938 C 489.59375 589.28125 490.171875 588.777344 490.84375 588.777344 C 490.894531 588.777344 490.953125 588.78125 491.003906 588.789062 C 491.746094 588.875 492.265625 589.546875 492.179688 590.28125 C 492.09375 590.964844 491.519531 591.460938 490.84375 591.460938 "/>
<path style=" stroke:none;fill-rule:nonzero;fill:rgb(76.469421%,84.709167%,87.838745%);fill-opacity:1;" d="M 460.355469 595.945312 C 460.027344 595.90625 459.742188 595.6875 459.636719 595.351562 C 459.492188 594.90625 459.738281 594.421875 460.195312 594.273438 C 460.585938 594.144531 469.230469 591.378906 478.371094 595.355469 C 478.8125 595.546875 479.007812 596.050781 478.824219 596.492188 C 478.636719 596.929688 478.128906 597.125 477.691406 596.933594 C 469.152344 593.214844 460.8125 595.886719 460.71875 595.917969 C 460.597656 595.949219 460.472656 595.960938 460.355469 595.945312 "/>
<path style=" stroke:none;fill-rule:nonzero;fill:rgb(76.469421%,84.709167%,87.838745%);fill-opacity:1;" d="M 466.90625 592.058594 C 466.5625 592.015625 466.257812 591.757812 466.175781 591.394531 C 466.066406 590.9375 466.351562 590.472656 466.820312 590.363281 C 467.164062 590.28125 474.796875 588.484375 483.910156 592.445312 C 484.34375 592.636719 484.546875 593.144531 484.355469 593.578125 C 484.164062 594.015625 483.65625 594.214844 483.222656 594.023438 C 474.625 590.28125 467.289062 592.019531 467.207031 592.039062 C 467.105469 592.066406 467.011719 592.070312 466.90625 592.058594 "/>
<path style=" stroke:none;fill-rule:nonzero;fill:rgb(76.469421%,84.709167%,87.838745%);fill-opacity:1;" d="M 473.042969 588.675781 C 472.722656 588.636719 472.433594 588.417969 472.324219 588.09375 C 472.179688 587.644531 472.421875 587.15625 472.871094 587 C 473.199219 586.890625 481.488281 585.027344 490.640625 589.011719 C 491.078125 589.203125 491.277344 589.707031 491.085938 590.144531 C 490.894531 590.578125 490.390625 590.777344 489.953125 590.585938 C 481.402344 586.863281 473.492188 588.609375 473.417969 588.636719 C 473.292969 588.683594 473.167969 588.6875 473.042969 588.675781 "/>
<path style=" stroke:none;fill-rule:nonzero;fill:rgb(76.469421%,84.709167%,87.838745%);fill-opacity:1;" d="M 479.765625 583.3125 C 479.476562 583.28125 479.214844 583.101562 479.085938 582.8125 C 478.886719 582.386719 479.074219 581.878906 479.507812 581.679688 C 479.796875 581.542969 487.304688 581.304688 496.511719 585.3125 C 496.949219 585.507812 497.144531 586.011719 496.960938 586.445312 C 496.769531 586.882812 496.265625 587.082031 495.828125 586.894531 C 487.355469 583.203125 480.289062 583.210938 480.222656 583.242188 C 480.078125 583.308594 479.917969 583.332031 479.765625 583.3125 "/>
<path style=" stroke:none;fill-rule:nonzero;fill:rgb(100%,100%,100%);fill-opacity:1;" d="M 472.011719 600.917969 C 471.585938 600.867188 471.257812 600.503906 471.25 600.070312 C 471.25 599.867188 472.347656 595.582031 466.550781 592.191406 C 466.140625 591.945312 466 591.421875 466.238281 591.011719 C 466.484375 590.597656 467.007812 590.464844 467.417969 590.703125 C 474.101562 594.613281 472.972656 599.820312 472.972656 600.058594 C 472.980469 600.53125 472.589844 600.921875 472.117188 600.921875 C 472.082031 600.921875 472.042969 600.921875 472.011719 600.917969 "/>
<path style=" stroke:none;fill-rule:nonzero;fill:rgb(100%,100%,100%);fill-opacity:1;" d="M 478.425781 597.136719 C 477.964844 597.082031 477.625 596.667969 477.675781 596.203125 C 477.683594 596.019531 478.457031 591.925781 472.710938 588.5625 C 472.300781 588.320312 472.160156 587.796875 472.40625 587.386719 C 472.640625 586.976562 473.167969 586.832031 473.578125 587.074219 C 480.3125 591.015625 479.40625 596.128906 479.382812 596.359375 C 479.34375 596.832031 478.925781 597.183594 478.449219 597.136719 L 478.425781 597.136719 "/>
<path style=" stroke:none;fill-rule:nonzero;fill:rgb(100%,100%,100%);fill-opacity:1;" d="M 483.882812 594.242188 C 483.425781 594.1875 483.09375 593.785156 483.125 593.324219 C 483.136719 593.113281 485.195312 586.578125 479.433594 583.203125 C 479.019531 582.960938 478.886719 582.433594 479.125 582.023438 C 479.363281 581.613281 479.886719 581.472656 480.304688 581.714844 C 487.027344 585.65625 484.863281 593.191406 484.839844 593.449219 C 484.804688 593.925781 484.390625 594.277344 483.917969 594.246094 L 483.882812 594.242188 "/>
<path style=" stroke:none;fill-rule:nonzero;fill:rgb(100%,100%,100%);fill-opacity:1;" d="M 490.53125 590.5 C 490.164062 590.453125 489.855469 590.175781 489.785156 589.792969 C 489.777344 589.742188 487.230469 583.441406 481.347656 580.003906 C 480.933594 579.761719 480.800781 579.238281 481.035156 578.824219 C 481.28125 578.414062 481.800781 578.273438 482.214844 578.515625 C 488.824219 582.382812 491.445312 589.257812 491.480469 589.496094 C 491.5625 589.964844 491.25 590.40625 490.78125 590.488281 C 490.695312 590.503906 490.609375 590.503906 490.53125 590.5 "/>
<path style=" stroke:none;fill-rule:nonzero;fill:rgb(100%,100%,100%);fill-opacity:1;" d="M 484.707031 580.511719 C 483.253906 579.335938 481.875 578.09375 480.628906 576.6875 C 479.890625 575.859375 479.273438 574.941406 478.824219 573.925781 C 478.414062 573 479.066406 570.152344 480.527344 571.121094 C 482.820312 572.644531 483.539062 578.570312 483.335938 581.09375 C 483.257812 582.074219 484.570312 582.410156 484.988281 581.523438 C 485.820312 579.746094 487.925781 578.167969 489.671875 577.394531 C 490.996094 576.804688 490.75 578.816406 490.171875 579.386719 C 489.660156 579.886719 488.746094 580.113281 488.085938 580.277344 C 486.859375 580.574219 485.519531 580.605469 484.292969 580.34375 C 483.207031 580.109375 483.011719 581.820312 484.089844 582.054688 C 486.957031 582.664062 494.867188 581.136719 492.058594 576.496094 C 489.996094 573.089844 484.335938 578.859375 483.394531 580.875 C 483.941406 581.015625 484.492188 581.160156 485.042969 581.300781 C 485.242188 578.820312 484.035156 568.308594 479.824219 569.226562 C 477.269531 569.789062 476.492188 572.378906 477.246094 574.613281 C 478.242188 577.570312 481.332031 579.992188 483.671875 581.886719 C 484.535156 582.585938 485.570312 581.207031 484.707031 580.511719 "/>
<path style=" stroke:none;fill-rule:nonzero;fill:rgb(82.749939%,82.348633%,82.348633%);fill-opacity:1;" d="M 511.371094 590.230469 L 511.847656 595.039062 L 483.328125 607.449219 C 469.433594 613.1875 462.332031 613.050781 462.332031 613.050781 C 454.492188 613.476562 451.257812 610.5625 449.015625 608.101562 L 449.277344 603.304688 C 458.824219 610.132812 461.140625 609.136719 481.867188 602.492188 L 511.371094 590.230469 "/>
<path style=" stroke:none;fill-rule:nonzero;fill:rgb(96.859741%,67.449951%,50.19989%);fill-opacity:1;" d="M 576.648438 513.140625 L 545.492188 513.140625 L 555.855469 599.648438 C 555.855469 599.648438 555 607.5625 563.210938 608.085938 C 563.210938 608.085938 574.015625 609.378906 573.144531 596.351562 L 576.648438 513.140625 "/>
<path style=" stroke:none;fill-rule:nonzero;fill:rgb(16.079712%,15.689087%,19.999695%);fill-opacity:1;" d="M 555.855469 599.648438 L 549.789062 623.746094 C 549.789062 623.746094 546.277344 634.09375 545.917969 636.804688 C 545.917969 636.804688 547.207031 643.136719 558.402344 641.691406 C 558.402344 641.691406 569.589844 641.96875 570.878906 630.78125 L 573.460938 613.277344 L 575.1875 605.066406 L 573.144531 596.351562 C 573.144531 596.351562 571.3125 598.109375 570.019531 599.019531 L 569.589844 596.953125 C 569.589844 596.953125 569.730469 595.742188 568.160156 595.613281 C 568.160156 595.613281 563.230469 593.464844 557.828125 595.613281 C 557.828125 595.613281 555.816406 596.351562 555.855469 599.648438 "/>
<path style=" stroke:none;fill-rule:nonzero;fill:rgb(67.449951%,74.508667%,77.648926%);fill-opacity:1;" d="M 564.824219 626.433594 L 564.796875 626.433594 L 549.980469 626.003906 C 549.507812 625.988281 549.132812 625.59375 549.144531 625.121094 C 549.164062 624.640625 549.59375 624.28125 550.03125 624.28125 L 564.847656 624.710938 C 565.320312 624.722656 565.695312 625.125 565.679688 625.597656 C 565.667969 626.0625 565.285156 626.433594 564.824219 626.433594 "/>
<path style=" stroke:none;fill-rule:nonzero;fill:rgb(8.628845%,7.449341%,7.839966%);fill-opacity:1;" d="M 555.746094 600.09375 L 556.320312 601.058594 L 550.511719 626.5 C 550.511719 626.5 550.148438 627.621094 549.328125 628.265625 L 548.054688 629.046875 L 555.746094 600.09375 "/>
<path style=" stroke:none;fill-rule:nonzero;fill:rgb(8.628845%,7.449341%,7.839966%);fill-opacity:1;" d="M 570.019531 599.019531 C 571.3125 598.109375 573.144531 596.351562 573.144531 596.351562 L 575.1875 605.066406 L 573.460938 613.277344 L 570.878906 630.78125 L 565.070312 629.789062 C 565.070312 629.789062 563.28125 629.429688 563.210938 627.851562 L 570.019531 599.019531 "/>
<path style=" stroke:none;fill-rule:nonzero;fill:rgb(100%,100%,100%);fill-opacity:1;" d="M 547.820312 631.636719 C 547.285156 633.484375 546.839844 635.164062 546.726562 636.027344 C 546.726562 636.027344 547.53125 641.285156 558.328125 640.652344 C 558.328125 640.652344 567.988281 640.867188 569.878906 631.636719 L 547.820312 631.636719 "/>
<path style=" stroke:none;fill-rule:nonzero;fill:rgb(82.749939%,82.348633%,82.348633%);fill-opacity:1;" d="M 550.867188 645.683594 C 550.867188 645.683594 568.355469 648.316406 571.601562 640.101562 C 571.601562 640.101562 573.179688 637.957031 574.183594 627.910156 L 575.761719 615.140625 L 576.765625 609.066406 L 575.1875 605.066406 L 573.460938 613.277344 L 570.878906 630.78125 C 569.589844 641.96875 558.402344 641.691406 558.402344 641.691406 C 546.5625 642.542969 545.917969 636.804688 545.917969 636.804688 C 545.917969 636.804688 545.996094 636.371094 546.515625 634.195312 C 546.515625 634.195312 543.910156 638.8125 545.996094 643.082031 C 545.996094 643.082031 546.726562 645.464844 550.867188 645.683594 "/>
<path style=" stroke:none;fill-rule:nonzero;fill:rgb(7.839966%,6.269836%,6.269836%);fill-opacity:1;" d="M 565.425781 627.207031 C 564.761719 627.207031 564.179688 626.710938 564.089844 626.03125 C 563.992188 625.289062 564.511719 624.609375 565.25 624.507812 C 565.3125 624.5 565.371094 624.496094 565.429688 624.496094 C 566.097656 624.496094 566.683594 624.992188 566.773438 625.671875 C 566.867188 626.414062 566.347656 627.097656 565.605469 627.195312 C 565.546875 627.203125 565.484375 627.207031 565.425781 627.207031 "/>
<path style=" stroke:none;fill-rule:nonzero;fill:rgb(7.839966%,6.269836%,6.269836%);fill-opacity:1;" d="M 566.957031 621.351562 C 566.289062 621.351562 565.703125 620.855469 565.613281 620.175781 C 565.519531 619.433594 566.039062 618.753906 566.777344 618.65625 C 566.835938 618.648438 566.894531 618.648438 566.957031 618.648438 C 567.628906 618.648438 568.207031 619.140625 568.300781 619.820312 C 568.398438 620.5625 567.875 621.238281 567.128906 621.339844 C 567.070312 621.347656 567.015625 621.351562 566.957031 621.351562 "/>
<path style=" stroke:none;fill-rule:nonzero;fill:rgb(7.839966%,6.269836%,6.269836%);fill-opacity:1;" d="M 568.136719 615.882812 C 567.46875 615.882812 566.882812 615.386719 566.796875 614.710938 C 566.699219 613.964844 567.21875 613.28125 567.960938 613.1875 C 568.019531 613.179688 568.082031 613.179688 568.144531 613.179688 C 568.804688 613.179688 569.390625 613.671875 569.476562 614.351562 C 569.578125 615.09375 569.058594 615.777344 568.308594 615.871094 C 568.253906 615.878906 568.195312 615.882812 568.136719 615.882812 "/>
<path style=" stroke:none;fill-rule:nonzero;fill:rgb(7.839966%,6.269836%,6.269836%);fill-opacity:1;" d="M 569.191406 609.847656 C 568.523438 609.847656 567.945312 609.351562 567.855469 608.675781 C 567.757812 607.929688 568.277344 607.253906 569.023438 607.152344 C 569.082031 607.144531 569.140625 607.140625 569.199219 607.140625 C 569.867188 607.140625 570.449219 607.636719 570.539062 608.316406 C 570.636719 609.058594 570.117188 609.738281 569.375 609.832031 C 569.316406 609.847656 569.25 609.847656 569.191406 609.847656 "/>
<path style=" stroke:none;fill-rule:nonzero;fill:rgb(76.469421%,84.709167%,87.838745%);fill-opacity:1;" d="M 554.277344 612.910156 C 559.292969 611.816406 564.414062 610.703125 569.28125 609.082031 C 570.328125 608.734375 569.878906 607.074219 568.824219 607.425781 C 563.957031 609.046875 558.839844 610.15625 553.824219 611.246094 C 552.742188 611.484375 553.203125 613.144531 554.277344 612.910156 "/>
<path style=" stroke:none;fill-rule:nonzero;fill:rgb(76.469421%,84.709167%,87.838745%);fill-opacity:1;" d="M 552.132812 618.675781 C 557.433594 617.148438 562.875 616.257812 568.226562 614.988281 C 569.3125 614.738281 568.851562 613.078125 567.769531 613.332031 C 562.414062 614.597656 556.972656 615.488281 551.675781 617.019531 C 550.613281 617.324219 551.066406 618.984375 552.132812 618.675781 "/>
<path style=" stroke:none;fill-rule:nonzero;fill:rgb(76.469421%,84.709167%,87.838745%);fill-opacity:1;" d="M 549.554688 625.972656 C 555.40625 624.335938 561.207031 622.429688 567.011719 620.632812 C 568.066406 620.308594 567.621094 618.648438 566.554688 618.976562 C 560.753906 620.769531 554.945312 622.675781 549.09375 624.316406 C 548.027344 624.613281 548.484375 626.273438 549.554688 625.972656 "/>
<path style=" stroke:none;fill-rule:nonzero;fill:rgb(100%,100%,100%);fill-opacity:1;" d="M 554.453125 607.839844 C 558.644531 610.285156 563.140625 612.125 567.304688 614.667969 C 568.257812 615.242188 569.121094 613.753906 568.179688 613.179688 C 564.007812 610.640625 559.519531 608.800781 555.320312 606.351562 C 554.359375 605.789062 553.488281 607.28125 554.453125 607.839844 "/>
<path style=" stroke:none;fill-rule:nonzero;fill:rgb(100%,100%,100%);fill-opacity:1;" d="M 553.085938 612.890625 C 557.3125 615.269531 562.527344 617.167969 566.171875 620.414062 C 567 621.148438 568.222656 619.9375 567.390625 619.199219 C 563.605469 615.832031 558.335938 613.875 553.953125 611.40625 C 552.988281 610.859375 552.117188 612.347656 553.085938 612.890625 "/>
<path style=" stroke:none;fill-rule:nonzero;fill:rgb(100%,100%,100%);fill-opacity:1;" d="M 551.007812 618.648438 C 555.378906 621.355469 560.023438 624.34375 564.710938 626.457031 C 565.710938 626.910156 566.589844 625.425781 565.578125 624.972656 C 560.886719 622.859375 556.25 619.871094 551.871094 617.160156 C 550.925781 616.578125 550.066406 618.066406 551.007812 618.648438 "/>
<path style=" stroke:none;fill-rule:nonzero;fill:rgb(100%,100%,100%);fill-opacity:1;" d="M 562.789062 604.746094 C 561.125 604.199219 559.503906 603.570312 557.9375 602.789062 C 556.886719 602.257812 555.914062 601.609375 555.066406 600.796875 C 554.398438 600.15625 553.644531 597.109375 555.492188 597.433594 C 558.203125 597.910156 561.03125 603.414062 561.734375 605.804688 C 562.015625 606.769531 563.34375 606.527344 563.425781 605.578125 C 563.570312 603.722656 564.871094 601.683594 566.066406 600.335938 C 566.484375 599.730469 567 599.820312 567.628906 600.605469 C 568.074219 601.828125 566.582031 602.839844 565.832031 603.359375 C 564.800781 604.070312 563.5625 604.546875 562.332031 604.746094 C 561.238281 604.921875 561.707031 606.582031 562.789062 606.402344 C 565.019531 606.046875 567.324219 604.8125 568.71875 603.03125 C 569.730469 601.734375 569.664062 599.296875 568.175781 598.320312 C 564.921875 596.195312 561.882812 603.265625 561.703125 605.578125 C 562.265625 605.496094 562.824219 605.421875 563.390625 605.34375 C 562.542969 602.464844 558.070312 593.902344 554.058594 596.039062 C 551.71875 597.28125 552.503906 600.460938 553.847656 602.011719 C 555.875 604.335938 559.492188 605.472656 562.332031 606.402344 C 563.390625 606.753906 563.839844 605.085938 562.789062 604.746094 "/>
<path style=" stroke:none;fill-rule:nonzero;fill:rgb(95.689392%,67.449951%,49.798584%);fill-opacity:1;" d="M 462.457031 176.707031 L 459.042969 247.332031 C 459.042969 247.332031 463.222656 262.519531 473.722656 265.210938 C 473.722656 265.210938 483.929688 266.644531 487.960938 250.351562 L 499.777344 177.296875 L 462.457031 176.707031 "/>
<path style=" stroke:none;fill-rule:nonzero;fill:rgb(95.689392%,67.449951%,49.798584%);fill-opacity:1;" d="M 448.710938 244.023438 C 448.710938 244.023438 433.792969 264.078125 415.023438 314.152344 L 423.625 321.414062 C 423.625 321.414062 467.613281 273.046875 474.667969 252.332031 L 448.710938 244.023438 "/>
<path style=" stroke:none;fill-rule:nonzero;fill:rgb(7.839966%,10.5896%,15.689087%);fill-opacity:1;" d="M 433.535156 317.566406 C 435.152344 317.671875 450.101562 294.097656 465.089844 270.519531 C 480.0625 246.96875 495.070312 223.421875 496.835938 223.472656 L 508.605469 143.605469 C 513.589844 117.132812 493.011719 107.753906 493.011719 107.753906 C 472.871094 108.460938 463.957031 145.253906 463.957031 145.253906 L 455.863281 215.761719 L 414.910156 304.09375 C 418.703125 312.351562 422.988281 316.902344 433.535156 317.566406 "/>
<path style=" stroke:none;fill-rule:nonzero;fill:rgb(96.859741%,67.449951%,50.19989%);fill-opacity:1;" d="M 416.757812 340.632812 C 416.757812 340.632812 423.566406 334.894531 425.03125 315.234375 L 416.164062 311.191406 L 399.269531 323.101562 C 399.269531 323.101562 399.820312 325.539062 404.375 324.316406 C 408.929688 323.09375 407.105469 323.527344 407.105469 323.527344 L 399.328125 346.578125 C 399.328125 346.578125 401.519531 349.214844 404.023438 346.269531 C 404.023438 346.269531 407.476562 348.527344 409.398438 344.6875 C 409.398438 344.6875 412.847656 345.503906 416.757812 340.632812 "/>
<path style=" stroke:none;fill-rule:nonzero;fill:rgb(58.039856%,81.959534%,93.728638%);fill-opacity:1;" d="M 511.9375 574.894531 C 514.917969 542.664062 532.214844 445.886719 525.683594 422.183594 L 550.714844 305.863281 C 550.714844 305.863281 509.101562 302.5625 484.804688 286.359375 L 480.429688 389.042969 L 484.578125 574.003906 C 495.246094 581.007812 501.4375 580.367188 511.9375 574.894531 "/>
<path style=" stroke:none;fill-rule:nonzero;fill:rgb(41.958618%,73.728943%,88.238525%);fill-opacity:1;" d="M 501.128906 577.9375 C 507.050781 579.210938 507.179688 577.378906 511.9375 574.894531 C 514.917969 542.664062 532.214844 445.886719 525.683594 422.183594 L 550.476562 306.84375 C 550.476562 306.84375 538.910156 306.082031 522.519531 302.5625 L 526.324219 342.722656 L 509.101562 376.410156 C 508.167969 391.851562 509.035156 414.339844 509.101562 429.804688 L 501.128906 577.9375 "/>
<path style=" stroke:none;fill-rule:nonzero;fill:rgb(58.039856%,81.959534%,93.728638%);fill-opacity:1;" d="M 551.257812 599.007812 C 556.871094 600.875 558.542969 600.476562 561.796875 600.078125 C 563.285156 599.898438 565.109375 599.714844 567.785156 599.75 C 574.25 599.828125 572.640625 597.828125 576.765625 594.253906 C 576.875 563.894531 586.988281 454.582031 580.988281 438.171875 L 581.085938 360.238281 C 583.691406 332.027344 581.085938 306.941406 581.085938 306.941406 C 581.085938 306.941406 550.714844 307.75 522.519531 302.5625 L 529.28125 429.871094 L 551.257812 599.007812 "/>
<path style=" stroke:none;fill-rule:nonzero;fill:rgb(41.958618%,73.728943%,88.238525%);fill-opacity:1;" d="M 560.257812 387.238281 C 563.441406 421.996094 563.242188 457.011719 566.242188 491.835938 C 567.066406 501.4375 567.761719 588.953125 567.949219 599.742188 C 574.339844 599.789062 572.675781 597.800781 576.765625 594.253906 C 576.875 563.894531 586.988281 454.582031 580.988281 438.171875 L 581.085938 360.238281 C 583.691406 332.027344 581.085938 306.941406 581.085938 306.941406 C 581.085938 306.941406 569.796875 307.175781 553.71875 306.082031 C 548.34375 327.582031 552.851562 339.105469 556.972656 351.070312 C 560.921875 362.519531 559.15625 375.183594 560.257812 387.238281 "/>
<path style=" stroke:none;fill-rule:nonzero;fill:rgb(9.01947%,12.159729%,18.03894%);fill-opacity:1;" d="M 599.292969 164.09375 C 599.714844 152.515625 591.140625 142.652344 580.847656 137.9375 L 562.191406 130.203125 C 541.550781 121.632812 521.0625 113.085938 500.539062 104.632812 C 500.539062 104.632812 480.664062 104.660156 480.433594 124.425781 C 480.433594 124.425781 472.308594 258.8125 474.78125 323.78125 C 474.78125 323.78125 506.363281 364.121094 587.308594 339.191406 L 582.824219 221.117188 L 582.820312 221.117188 C 584.300781 214.292969 586.03125 207.515625 588.914062 200.804688 C 593.855469 189.269531 598.859375 176.960938 599.292969 164.09375 "/>
<path style=" stroke:none;fill-rule:nonzero;fill:rgb(78.039551%,76.858521%,78.42865%);fill-opacity:1;" d="M 583.910156 249.769531 L 582.824219 221.121094 L 582.820312 221.121094 C 584.300781 214.292969 586.03125 207.515625 588.910156 200.804688 C 592.097656 193.367188 595.308594 185.605469 597.308594 177.578125 C 593.058594 200.027344 583.511719 239.328125 583.886719 249.226562 C 583.894531 249.410156 583.902344 249.59375 583.910156 249.769531 M 599.285156 164.117188 C 599.289062 164.105469 599.289062 164.097656 599.289062 164.089844 C 599.289062 164.097656 599.289062 164.105469 599.285156 164.117188 M 599.289062 164.039062 C 599.289062 164.035156 599.289062 164.03125 599.289062 164.027344 C 599.289062 164.03125 599.289062 164.035156 599.289062 164.039062 M 599.292969 163.984375 C 599.292969 163.976562 599.292969 163.96875 599.292969 163.960938 C 599.292969 163.96875 599.292969 163.976562 599.292969 163.984375 M 599.292969 163.921875 C 599.292969 163.914062 599.292969 163.90625 599.292969 163.890625 C 599.292969 163.90625 599.292969 163.914062 599.292969 163.921875 M 599.292969 163.878906 C 599.296875 163.863281 599.296875 163.839844 599.296875 163.824219 C 599.296875 163.839844 599.296875 163.863281 599.292969 163.878906 M 599.296875 163.816406 C 599.316406 163 599.292969 162.1875 599.226562 161.386719 C 599.292969 162.1875 599.316406 163 599.296875 163.816406 M 599.222656 161.371094 C 599.222656 161.359375 599.222656 161.347656 599.222656 161.335938 C 599.222656 161.347656 599.222656 161.359375 599.222656 161.371094 M 599.21875 161.308594 C 599.21875 161.296875 599.21875 161.289062 599.214844 161.28125 C 599.21875 161.289062 599.21875 161.296875 599.21875 161.308594 M 599.210938 161.238281 C 599.210938 161.238281 599.210938 161.230469 599.210938 161.226562 C 599.210938 161.230469 599.210938 161.238281 599.210938 161.238281 "/>
<path style=" stroke:none;fill-rule:nonzero;fill:rgb(7.449341%,10.198975%,14.898682%);fill-opacity:1;" d="M 546.570312 320.691406 C 542.261719 314.015625 538.992188 311.464844 536.476562 310.527344 L 536.476562 256.164062 C 536.617188 255.171875 536.730469 254.160156 536.804688 253.117188 C 537.367188 245.472656 558.46875 168.183594 560.96875 161.039062 C 563.5 153.792969 574.65625 143.6875 582.246094 141.136719 C 583.132812 140.839844 583.765625 140.324219 584.175781 139.699219 C 592.078125 144.378906 598.355469 152.125 599.203125 161.179688 C 599.203125 161.195312 599.207031 161.210938 599.207031 161.230469 C 599.207031 161.234375 599.207031 161.238281 599.207031 161.242188 C 599.210938 161.257812 599.210938 161.273438 599.210938 161.289062 C 599.214844 161.296875 599.214844 161.300781 599.214844 161.308594 C 599.214844 161.320312 599.214844 161.328125 599.21875 161.335938 C 599.21875 161.351562 599.21875 161.363281 599.21875 161.375 C 599.21875 161.378906 599.222656 161.382812 599.222656 161.386719 C 599.289062 162.191406 599.316406 163 599.292969 163.820312 C 599.292969 163.820312 599.292969 163.824219 599.292969 163.824219 C 599.292969 163.847656 599.292969 163.863281 599.289062 163.882812 C 599.289062 163.886719 599.289062 163.890625 599.289062 163.898438 C 599.289062 163.90625 599.289062 163.914062 599.289062 163.921875 C 599.289062 163.9375 599.289062 163.953125 599.289062 163.960938 C 599.289062 163.972656 599.289062 163.980469 599.289062 163.988281 C 599.289062 164 599.285156 164.015625 599.285156 164.03125 C 599.285156 164.035156 599.285156 164.039062 599.285156 164.042969 C 599.285156 164.058594 599.285156 164.082031 599.285156 164.097656 C 599.285156 164.101562 599.285156 164.109375 599.28125 164.117188 C 599.1875 166.832031 598.4375 171.609375 597.304688 177.582031 C 595.304688 185.605469 592.09375 193.371094 588.90625 200.808594 C 586.03125 207.519531 584.296875 214.292969 582.816406 221.121094 L 582.820312 221.121094 L 583.90625 249.773438 C 584.175781 256.996094 584.304688 261.632812 584.621094 268.894531 L 574.398438 300.316406 L 546.570312 320.691406 "/>
<path style=" stroke:none;fill-rule:nonzero;fill:rgb(96.859741%,67.449951%,50.19989%);fill-opacity:1;" d="M 522.609375 150.546875 C 537.582031 151.660156 552.0625 142.015625 557.023438 127.746094 C 541.910156 121.472656 529.152344 116.484375 514.125 110.265625 C 503.386719 122.324219 501.703125 148.976562 522.609375 150.546875 "/>
<path style=" stroke:none;fill-rule:nonzero;fill:rgb(96.859741%,67.449951%,50.19989%);fill-opacity:1;" d="M 552.238281 96.714844 C 552.238281 96.714844 551.660156 119.417969 557.023438 127.746094 C 557.023438 127.746094 541.375 144.757812 515.894531 144.757812 C 515.894531 144.757812 516.347656 118.695312 513.207031 107.792969 L 552.238281 96.714844 "/>
<path style=" stroke:none;fill-rule:nonzero;fill:rgb(92.939758%,57.649231%,39.608765%);fill-opacity:1;" d="M 515.367188 123.113281 C 515.363281 123.113281 515.363281 123.105469 515.359375 123.105469 C 515.347656 122.910156 515.332031 122.710938 515.320312 122.511719 C 515.339844 122.710938 515.351562 122.910156 515.367188 123.113281 "/>
<path style=" stroke:none;fill-rule:nonzero;fill:rgb(95.689392%,83.529663%,75.289917%);fill-opacity:1;" d="M 554.476562 121.359375 C 551.960938 111.648438 552.222656 97.773438 552.238281 96.769531 C 552.222656 97.773438 551.960938 111.652344 554.476562 121.359375 M 513.234375 107.894531 C 513.222656 107.859375 513.214844 107.828125 513.207031 107.792969 C 513.214844 107.828125 513.222656 107.859375 513.234375 107.894531 M 552.238281 96.769531 C 552.238281 96.769531 552.238281 96.765625 552.238281 96.765625 C 552.238281 96.765625 552.238281 96.769531 552.238281 96.769531 M 552.238281 96.765625 C 552.238281 96.761719 552.238281 96.757812 552.238281 96.753906 C 552.238281 96.757812 552.238281 96.761719 552.238281 96.765625 M 552.238281 96.75 C 552.238281 96.746094 552.238281 96.738281 552.238281 96.730469 C 552.238281 96.738281 552.238281 96.746094 552.238281 96.75 M 552.238281 96.726562 C 552.238281 96.722656 552.238281 96.722656 552.238281 96.722656 C 552.238281 96.722656 552.238281 96.722656 552.238281 96.726562 M 552.238281 96.71875 C 552.238281 96.71875 552.238281 96.71875 552.238281 96.714844 C 552.238281 96.71875 552.238281 96.71875 552.238281 96.71875 "/>
<path style=" stroke:none;fill-rule:nonzero;fill:rgb(92.939758%,57.649231%,39.608765%);fill-opacity:1;" d="M 518.773438 123.363281 C 517.636719 123.363281 516.492188 123.285156 515.363281 123.113281 C 515.347656 122.914062 515.335938 122.714844 515.324219 122.511719 C 515.015625 117.402344 514.40625 112.011719 513.234375 107.894531 C 513.222656 107.859375 513.214844 107.828125 513.207031 107.792969 L 552.238281 96.714844 C 552.238281 96.71875 552.238281 96.71875 552.238281 96.71875 C 552.238281 96.722656 552.238281 96.722656 552.238281 96.722656 C 552.238281 96.722656 552.238281 96.722656 552.238281 96.726562 C 552.238281 96.730469 552.238281 96.730469 552.238281 96.730469 C 552.238281 96.738281 552.238281 96.746094 552.238281 96.75 C 552.238281 96.75 552.238281 96.753906 552.238281 96.753906 C 552.238281 96.757812 552.238281 96.761719 552.238281 96.765625 C 552.238281 96.765625 552.238281 96.769531 552.238281 96.769531 C 552.222656 97.773438 551.960938 111.648438 554.476562 121.359375 C 554.34375 121.25 554.214844 121.144531 554.082031 121.03125 C 552.617188 119.84375 551.054688 118.722656 549.273438 118.054688 C 548.234375 117.667969 547.175781 117.492188 546.105469 117.492188 C 545.007812 117.492188 543.90625 117.675781 542.828125 118 C 541.535156 118.378906 540.289062 118.875 539.015625 119.324219 C 537.957031 119.703125 536.859375 119.921875 535.773438 120.203125 C 533.492188 120.792969 531.222656 121.40625 528.925781 121.929688 C 525.628906 122.683594 522.191406 123.363281 518.773438 123.363281 "/>
<path style=" stroke:none;fill-rule:nonzero;fill:rgb(96.859741%,67.449951%,50.19989%);fill-opacity:1;" d="M 501.703125 111.863281 L 500.414062 105.425781 L 497.839844 81.835938 C 497.519531 78.871094 498.105469 75.074219 499.113281 72.257812 C 500.207031 69.1875 501.128906 65.9375 500.867188 62.460938 C 499.574219 45.589844 504.664062 35.625 504.664062 35.625 C 516.382812 21.902344 543.730469 27.371094 543.730469 27.371094 C 571.464844 32.804688 569.890625 60.183594 569.890625 60.183594 C 571.824219 78.839844 555.308594 91.742188 555.308594 91.742188 L 553.382812 99.398438 C 552.867188 101.078125 550.195312 102.964844 548.808594 103.875 C 542.25 108.171875 534.226562 111.777344 526.664062 114.066406 C 521.410156 115.660156 518.71875 117.554688 513.242188 117.285156 C 510.371094 117.132812 502.441406 115.558594 501.703125 111.863281 "/>
<path style=" stroke:none;fill-rule:nonzero;fill:rgb(68.238831%,40.388489%,19.999695%);fill-opacity:1;" d="M 550.09375 70.476562 C 548.855469 70.652344 546.007812 70.347656 544.894531 70.542969 C 545.136719 80.21875 542.890625 91.9375 534.359375 97.429688 C 522.972656 104.769531 511.628906 99.003906 499.710938 99.003906 C 500.109375 102.652344 500.414062 105.425781 500.414062 105.425781 L 501.699219 111.863281 C 502.441406 115.558594 510.367188 117.136719 513.238281 117.289062 C 518.71875 117.558594 521.40625 115.664062 526.664062 114.066406 C 534.222656 111.777344 542.25 108.175781 548.808594 103.878906 C 550.195312 102.96875 552.867188 101.078125 553.382812 99.402344 L 555.210938 91.523438 C 550.714844 84.644531 550.46875 78.792969 550.09375 70.476562 "/>
<path style=" stroke:none;fill-rule:nonzero;fill:rgb(96.859741%,67.449951%,50.19989%);fill-opacity:1;" d="M 563.953125 74.558594 C 562.671875 73.070312 560.980469 72.066406 559.1875 71.722656 C 557.324219 71.363281 554.476562 71.648438 552.632812 72.875 C 550.757812 74.136719 549.28125 76.046875 548.355469 78.394531 L 553.152344 80.285156 C 553.53125 79.335938 554.25 78.015625 555.515625 77.164062 C 555.953125 76.871094 557.367188 76.636719 558.210938 76.792969 C 558.855469 76.917969 559.523438 77.335938 560.039062 77.929688 C 560.597656 78.574219 560.789062 79.488281 560.671875 81.085938 C 560.671875 81.152344 560.667969 81.222656 560.664062 81.292969 L 560.484375 81.902344 C 559.777344 86.214844 555.492188 88.355469 554.410156 88.828125 C 554.472656 88.898438 554.523438 88.96875 554.5625 89.0625 C 554.917969 89.949219 555.058594 90.878906 555.128906 91.820312 C 555.132812 91.875 555.121094 91.90625 555.117188 91.949219 C 555.21875 92.683594 555.121094 93.449219 554.835938 94.128906 C 555.34375 94.003906 555.769531 93.863281 556.015625 93.757812 C 556.96875 93.386719 564.125 90.410156 565.53125 83.058594 C 565.761719 82.425781 565.800781 81.824219 565.832031 81.34375 C 565.96875 79.527344 565.914062 76.84375 563.953125 74.558594 "/>
<path style=" stroke:none;fill-rule:nonzero;fill:rgb(68.238831%,40.388489%,19.999695%);fill-opacity:1;" d="M 566.710938 29.078125 C 566.710938 29.078125 579.226562 39.453125 578.050781 52.816406 C 578.050781 52.816406 571.449219 88.46875 554.113281 96.503906 C 554.113281 96.503906 558.046875 80.140625 552.964844 75.921875 C 552.964844 75.921875 551.390625 76.785156 550.722656 79.523438 C 549.8125 80.035156 548.882812 80.507812 547.941406 80.9375 C 545.054688 74.167969 541.507812 71.742188 540.351562 67.019531 L 540.035156 50.152344 L 545.828125 42.714844 L 566.710938 29.078125 "/>
<path style=" stroke:none;fill-rule:nonzero;fill:rgb(96.859741%,67.449951%,50.19989%);fill-opacity:1;" d="M 550.753906 79.34375 C 552.101562 75.933594 555.429688 73.304688 559.167969 74.425781 C 561.917969 75.246094 563.550781 77.660156 563.285156 80.488281 C 563.226562 81.101562 563.089844 81.703125 563.03125 82.320312 C 561.953125 88.863281 555.042969 91.359375 555.042969 91.359375 "/>
<path style=" stroke:none;fill-rule:nonzero;fill:rgb(87.449646%,57.249451%,44.309998%);fill-opacity:1;" d="M 558.472656 77.515625 C 558.097656 77.246094 557.304688 77.09375 556.8125 77.066406 C 554.308594 76.90625 552.289062 80.761719 554.796875 81.457031 C 555.738281 82.371094 554.765625 83.433594 554.765625 83.433594 C 553.898438 84.371094 552.746094 85.714844 553.003906 87.035156 C 553.160156 87.816406 554.027344 88.242188 554.8125 88.433594 C 555.445312 88.585938 555.570312 88.09375 555.066406 87.859375 C 554.695312 87.675781 554.363281 87.390625 554.117188 87.074219 C 554.09375 87.03125 554.066406 86.988281 554.042969 86.945312 C 554.015625 86.917969 553.996094 86.882812 553.980469 86.847656 C 553.898438 86.65625 553.898438 86.460938 553.953125 86.273438 C 554.519531 86.667969 555.464844 86.761719 555.894531 86.246094 C 556.367188 85.679688 556.011719 84.785156 556.175781 84.132812 C 556.292969 83.675781 556.503906 83.25 556.75 82.835938 C 557.898438 80.921875 555.835938 80.59375 555.835938 80.59375 C 555.515625 80.605469 555.277344 80.625 555.070312 80.65625 C 554.019531 80.105469 555.195312 78.539062 555.835938 78.285156 C 556.578125 77.992188 557.484375 78.09375 558.019531 78.664062 C 558.546875 79.246094 558.761719 80.140625 558.710938 80.878906 C 558.65625 81.785156 558.425781 82.691406 558.027344 83.523438 C 557.804688 83.996094 557.515625 84.550781 557.285156 85.03125 C 557.027344 85.566406 557.652344 85.800781 557.910156 85.261719 C 558.460938 84.132812 559.480469 82.464844 559.691406 80.894531 C 559.878906 79.597656 559.644531 78.351562 558.472656 77.515625 "/>
<path style=" stroke:none;fill-rule:nonzero;fill:rgb(87.449646%,57.249451%,44.309998%);fill-opacity:1;" d="M 550.753906 79.339844 C 550.753906 79.339844 551.054688 78.914062 551.542969 78.140625 C 551.765625 77.738281 552.195312 77.398438 552.585938 76.945312 C 552.949219 76.527344 553.613281 76.0625 554.164062 75.707031 C 554.808594 75.382812 555.511719 75.035156 556.304688 74.933594 C 557.089844 74.828125 557.933594 74.832031 558.75 75.105469 C 559.023438 75.171875 559.65625 75.4375 559.980469 75.632812 C 560.324219 75.839844 560.660156 76.070312 560.976562 76.386719 C 561.59375 76.988281 562.070312 77.746094 562.285156 78.609375 C 562.488281 79.476562 562.496094 80.300781 562.328125 81.371094 L 562.226562 82.125 L 562.222656 82.21875 L 562.222656 82.230469 C 562.222656 82.1875 562.199219 82.34375 562.234375 82.140625 L 562.226562 82.164062 L 562.222656 82.210938 L 562.183594 82.390625 L 562.105469 82.765625 C 562.03125 83.28125 561.886719 83.679688 561.757812 84.082031 C 561.453125 84.90625 561.058594 85.714844 560.589844 86.40625 C 560.136719 87.117188 559.59375 87.71875 559.085938 88.269531 C 558.039062 89.335938 557.019531 90.128906 556.261719 90.617188 C 555.507812 91.113281 555.042969 91.359375 555.042969 91.359375 C 555.042969 91.359375 555.5625 91.253906 556.414062 90.914062 C 557.253906 90.542969 558.480469 90.007812 559.75 89 C 560.367188 88.496094 561.046875 87.917969 561.617188 87.167969 C 562.226562 86.445312 562.757812 85.605469 563.171875 84.625 C 563.371094 84.113281 563.585938 83.585938 563.671875 83.121094 L 563.769531 82.753906 L 563.8125 82.570312 L 563.828125 82.527344 L 563.855469 82.375 L 563.867188 82.28125 L 563.976562 81.527344 C 564.160156 80.589844 564.230469 79.3125 563.945312 78.164062 C 563.636719 77.003906 562.960938 75.964844 562.105469 75.171875 C 561.878906 74.984375 561.671875 74.785156 561.433594 74.613281 L 560.636719 74.175781 C 560.085938 73.921875 559.789062 73.808594 559.128906 73.640625 C 558.074219 73.351562 556.984375 73.457031 556.035156 73.683594 C 555.0625 73.902344 554.28125 74.417969 553.605469 74.898438 C 552.917969 75.464844 552.476562 75.933594 552.09375 76.535156 C 551.757812 77.109375 551.386719 77.566406 551.246094 77.996094 C 550.917969 78.835938 550.753906 79.339844 550.753906 79.339844 "/>
<path style=" stroke:none;fill-rule:nonzero;fill:rgb(68.238831%,40.388489%,19.999695%);fill-opacity:1;" d="M 501.652344 45.664062 C 474.863281 22.453125 507.246094 0.015625 507.246094 0.015625 C 503.265625 10.921875 509.777344 10.546875 509.777344 10.546875 C 509.777344 10.546875 518.914062 6.601562 534.492188 8.070312 C 549.007812 9.433594 559.746094 14.988281 559.746094 14.988281 C 559.746094 14.988281 570.046875 19.835938 568.585938 31.53125 L 539.90625 45.527344 C 539.90625 45.527344 521.4375 57.03125 501.652344 45.664062 "/>
<path style=" stroke:none;fill-rule:nonzero;fill:rgb(9.408569%,32.159424%,52.159119%);fill-opacity:1;" d="M 264.730469 289.828125 L 347.511719 168.015625 C 347.511719 168.015625 366.683594 138.851562 408.390625 147.953125 C 408.390625 147.953125 374.230469 145.523438 355.246094 172.914062 L 264.730469 289.828125 "/>
<path style=" stroke:none;fill-rule:nonzero;fill:rgb(10.5896%,36.859131%,59.999084%);fill-opacity:1;" d="M 264.726562 289.832031 L 348.25 174.367188 C 348.25 174.367188 369.214844 139.699219 409.949219 148.253906 L 536.476562 175.992188 L 264.726562 289.832031 "/>
<path style=" stroke:none;fill-rule:nonzero;fill:rgb(10.5896%,36.859131%,59.999084%);fill-opacity:1;" d="M 264.769531 490.828125 L 264.726562 289.832031 L 536.484375 175.992188 L 536.484375 377.121094 L 264.769531 490.828125 "/>
<path style=" stroke:none;fill-rule:nonzero;fill:rgb(76.078796%,90.589905%,97.648621%);fill-opacity:1;" d="M 318.417969 441.519531 L 318.367188 190.871094 L 476.085938 124.589844 L 476.085938 375.597656 L 318.417969 441.519531 "/>
<path style=" stroke:none;fill-rule:nonzero;fill:rgb(45.489502%,71.759033%,83.529663%);fill-opacity:1;" d="M 314.449219 438.847656 L 318.367188 441.519531 L 318.367188 190.878906 L 314.449219 188.214844 L 314.449219 438.847656 "/>
<path style=" stroke:none;fill-rule:nonzero;fill:rgb(58.039856%,85.099792%,96.469116%);fill-opacity:1;" d="M 472.164062 121.957031 L 476.085938 124.636719 L 318.367188 190.878906 L 314.449219 188.214844 L 472.164062 121.957031 "/>
<path style=" stroke:none;fill-rule:nonzero;fill:rgb(75.289917%,36.859131%,47.059631%);fill-opacity:1;" d="M 405.179688 184.332031 L 336.023438 213.238281 L 336.023438 219.800781 L 405.179688 190.890625 L 405.179688 184.332031 "/>
<path style=" stroke:none;fill-rule:nonzero;fill:rgb(53.329468%,73.728943%,83.529663%);fill-opacity:1;" d="M 364.039062 217.046875 L 336.023438 228.753906 L 336.023438 235.316406 L 364.039062 223.605469 L 364.039062 217.046875 "/>
<path style=" stroke:none;fill-rule:nonzero;fill:rgb(53.329468%,73.728943%,83.529663%);fill-opacity:1;" d="M 409.21875 198.15625 L 379.441406 210.601562 L 379.441406 217.171875 L 409.21875 204.722656 L 409.21875 198.15625 "/>
<path style=" stroke:none;fill-rule:nonzero;fill:rgb(53.329468%,73.728943%,83.529663%);fill-opacity:1;" d="M 426.378906 190.984375 L 426.378906 197.546875 L 459.441406 183.730469 L 459.441406 177.160156 L 426.378906 190.984375 "/>
<path style=" stroke:none;fill-rule:nonzero;fill:rgb(53.329468%,73.728943%,83.529663%);fill-opacity:1;" d="M 376.410156 227.394531 L 336.023438 244.269531 L 336.023438 250.839844 L 376.410156 233.960938 L 376.410156 227.394531 "/>
<path style=" stroke:none;fill-rule:nonzero;fill:rgb(53.329468%,73.728943%,83.529663%);fill-opacity:1;" d="M 433.953125 203.34375 L 389.527344 221.902344 L 389.527344 228.472656 L 433.953125 209.898438 L 433.953125 203.34375 "/>
<path style=" stroke:none;fill-rule:nonzero;fill:rgb(53.329468%,73.728943%,83.529663%);fill-opacity:1;" d="M 445.054688 198.695312 L 445.054688 205.265625 L 459.441406 199.246094 L 459.441406 192.6875 L 445.054688 198.695312 "/>
<path style=" stroke:none;fill-rule:nonzero;fill:rgb(53.329468%,73.728943%,83.529663%);fill-opacity:1;" d="M 392.558594 236.164062 L 336.023438 259.792969 L 336.023438 266.355469 L 392.558594 242.726562 L 392.558594 236.164062 "/>
<path style=" stroke:none;fill-rule:nonzero;fill:rgb(53.329468%,73.728943%,83.529663%);fill-opacity:1;" d="M 404.675781 231.097656 L 404.675781 237.664062 L 459.441406 214.765625 L 459.441406 208.203125 L 404.675781 231.097656 "/>
<path style=" stroke:none;fill-rule:nonzero;fill:rgb(53.329468%,73.728943%,83.529663%);fill-opacity:1;" d="M 359.246094 265.605469 L 336.023438 275.3125 L 336.023438 281.875 L 359.246094 272.167969 L 359.246094 265.605469 "/>
<path style=" stroke:none;fill-rule:nonzero;fill:rgb(53.329468%,73.728943%,83.529663%);fill-opacity:1;" d="M 422.34375 239.230469 L 372.371094 260.117188 L 372.371094 266.683594 L 422.34375 245.800781 L 422.34375 239.230469 "/>
<path style=" stroke:none;fill-rule:nonzero;fill:rgb(53.329468%,73.728943%,83.529663%);fill-opacity:1;" d="M 437.988281 232.691406 L 437.988281 239.257812 L 459.441406 230.285156 L 459.441406 223.726562 L 437.988281 232.691406 "/>
<path style=" stroke:none;fill-rule:nonzero;fill:rgb(53.329468%,73.728943%,83.529663%);fill-opacity:1;" d="M 392.558594 267.199219 L 336.023438 290.828125 L 336.023438 297.398438 L 392.558594 273.769531 L 392.558594 267.199219 "/>
<path style=" stroke:none;fill-rule:nonzero;fill:rgb(53.329468%,73.728943%,83.529663%);fill-opacity:1;" d="M 404.675781 262.132812 L 404.675781 268.699219 L 459.441406 245.804688 L 459.441406 239.238281 L 404.675781 262.132812 "/>
<path style=" stroke:none;fill-rule:nonzero;fill:rgb(53.329468%,73.728943%,83.529663%);fill-opacity:1;" d="M 359.246094 296.644531 L 336.023438 306.347656 L 336.023438 312.914062 L 359.246094 303.210938 L 359.246094 296.644531 "/>
<path style=" stroke:none;fill-rule:nonzero;fill:rgb(53.329468%,73.728943%,83.529663%);fill-opacity:1;" d="M 372.371094 291.15625 L 372.371094 297.726562 L 459.441406 261.328125 L 459.441406 254.761719 L 372.371094 291.15625 "/>
<path style=" stroke:none;fill-rule:nonzero;fill:rgb(53.329468%,73.728943%,83.529663%);fill-opacity:1;" d="M 422.847656 285.578125 L 336.023438 321.871094 L 336.023438 328.4375 L 422.847656 292.140625 L 422.847656 285.578125 "/>
<path style=" stroke:none;fill-rule:nonzero;fill:rgb(53.329468%,73.728943%,83.529663%);fill-opacity:1;" d="M 433.953125 280.851562 L 433.953125 287.414062 L 459.441406 276.847656 L 459.441406 270.28125 L 433.953125 280.851562 "/>
<path style=" stroke:none;fill-rule:nonzero;fill:rgb(53.329468%,73.728943%,83.529663%);fill-opacity:1;" d="M 391.550781 314.171875 L 336.023438 337.386719 L 336.023438 343.953125 L 391.550781 320.742188 L 391.550781 314.171875 "/>
<path style=" stroke:none;fill-rule:nonzero;fill:rgb(53.329468%,73.728943%,83.529663%);fill-opacity:1;" d="M 405.179688 308.480469 L 405.179688 315.046875 L 459.441406 292.367188 L 459.441406 285.800781 L 405.179688 308.480469 "/>
<path style=" stroke:none;fill-rule:nonzero;fill:rgb(53.329468%,73.728943%,83.529663%);fill-opacity:1;" d="M 368.835938 339.1875 L 336.023438 352.90625 L 336.023438 359.472656 L 368.835938 345.757812 L 368.835938 339.1875 "/>
<path style=" stroke:none;fill-rule:nonzero;fill:rgb(53.329468%,73.728943%,83.529663%);fill-opacity:1;" d="M 415.277344 319.777344 L 379.941406 334.550781 L 379.941406 341.113281 L 415.277344 326.351562 L 415.277344 319.777344 "/>
<path style=" stroke:none;fill-rule:nonzero;fill:rgb(53.329468%,73.728943%,83.529663%);fill-opacity:1;" d="M 426.125 315.246094 L 426.125 321.785156 L 426.136719 321.800781 L 459.441406 307.886719 L 459.441406 301.324219 L 426.125 315.246094 "/>
<path style=" stroke:none;fill-rule:nonzero;fill:rgb(53.329468%,73.728943%,83.529663%);fill-opacity:1;" d="M 365.804688 355.972656 L 336.023438 368.429688 L 336.023438 374.996094 L 365.804688 362.535156 L 365.804688 355.972656 "/>
<path style=" stroke:none;fill-rule:nonzero;fill:rgb(53.329468%,73.728943%,83.529663%);fill-opacity:1;" d="M 379.441406 350.277344 L 379.441406 356.847656 L 459.441406 323.402344 L 459.441406 316.835938 L 379.441406 350.277344 "/>
<path style=" stroke:none;fill-rule:nonzero;fill:rgb(53.329468%,73.728943%,83.529663%);fill-opacity:1;" d="M 414.769531 351.035156 L 336.023438 383.945312 L 336.023438 390.511719 L 414.769531 357.601562 L 414.769531 351.035156 "/>
<path style=" stroke:none;fill-rule:nonzero;fill:rgb(53.329468%,73.728943%,83.529663%);fill-opacity:1;" d="M 426.632812 346.074219 L 426.632812 352.636719 L 459.441406 338.921875 L 459.441406 332.355469 L 426.632812 346.074219 "/>
<path style=" stroke:none;fill-rule:nonzero;fill:rgb(53.329468%,73.728943%,83.529663%);fill-opacity:1;" d="M 376.910156 382.375 L 336.023438 399.46875 L 336.023438 406.03125 L 376.910156 388.941406 L 376.910156 382.375 "/>
<path style=" stroke:none;fill-rule:nonzero;fill:rgb(53.329468%,73.728943%,83.529663%);fill-opacity:1;" d="M 394.074219 375.195312 L 394.074219 381.753906 L 394.078125 381.769531 L 459.441406 354.445312 L 459.441406 347.878906 L 394.074219 375.195312 "/>
<path style=" stroke:none;fill-rule:nonzero;fill:rgb(21.569824%,62.748718%,85.879517%);fill-opacity:1;" d="M 404.546875 358.886719 L 264.769531 490.828125 L 264.726562 289.832031 L 400.601562 329.238281 C 400.601562 329.238281 409.949219 331.796875 409.714844 343.855469 C 409.714844 343.855469 411.613281 349.535156 404.546875 358.886719 "/>
<path style=" stroke:none;fill-rule:nonzero;fill:rgb(21.569824%,62.748718%,85.879517%);fill-opacity:1;" d="M 436.21875 352.195312 L 536.433594 376.980469 L 536.484375 175.992188 L 424.140625 318.582031 C 424.140625 318.582031 416.535156 326.632812 418.679688 337.292969 C 418.679688 337.292969 418.671875 348.585938 436.21875 352.195312 "/>
<path style=" stroke:none;fill-rule:nonzero;fill:rgb(13.729858%,48.239136%,76.858521%);fill-opacity:1;" d="M 264.769531 490.828125 L 371.230469 367.078125 C 371.230469 367.078125 394.953125 337.800781 408.078125 333.40625 C 408.078125 333.40625 419.160156 327.683594 444.929688 337.800781 L 536.484375 377.121094 L 264.769531 490.828125 "/>
<path style=" stroke:none;fill-rule:nonzero;fill:rgb(18.818665%,41.178894%,52.549744%);fill-opacity:1;" d="M 406.882812 333.863281 C 406.878906 333.859375 406.878906 333.855469 406.875 333.855469 C 406.8125 333.722656 406.1875 332.519531 404.164062 330.992188 L 415.277344 326.351562 L 415.277344 319.777344 L 396.710938 327.542969 L 383.984375 323.90625 L 391.550781 320.742188 L 391.550781 315.011719 L 409.949219 318.667969 L 417.859375 309.746094 L 437.605469 301.492188 L 427.082031 314.847656 L 426.125 315.246094 L 426.125 316.0625 L 424.140625 318.582031 C 424.140625 318.582031 421.535156 321.34375 419.804688 325.773438 C 418.917969 327.757812 418.28125 329.882812 418.375 331.753906 C 418.375 331.765625 418.371094 331.78125 418.371094 331.792969 C 418.28125 331.78125 417.304688 331.609375 415.8125 331.609375 C 413.5625 331.609375 410.15625 331.992188 406.890625 333.859375 C 406.886719 333.859375 406.886719 333.863281 406.882812 333.863281 M 374.648438 321.238281 L 361.933594 317.605469 L 375.675781 311.859375 L 390.1875 314.742188 L 374.648438 321.238281 "/>
<path style=" stroke:none;fill-rule:nonzero;fill:rgb(3.919983%,19.219971%,32.939148%);fill-opacity:1;" d="M 318.390625 305.164062 L 318.367188 305.160156 L 318.367188 300.480469 L 318.390625 300.484375 L 318.390625 305.164062 M 314.449219 304.039062 L 264.726562 289.832031 L 314.449219 299.703125 L 314.449219 304.039062 "/>
<path style=" stroke:none;fill-rule:nonzero;fill:rgb(18.818665%,41.178894%,52.549744%);fill-opacity:1;" d="M 352.601562 314.941406 L 339.878906 311.304688 L 350.503906 306.863281 L 365.027344 309.746094 L 352.601562 314.941406 M 336.023438 310.203125 L 318.390625 305.164062 L 318.390625 300.484375 L 339.847656 304.746094 L 336.023438 306.347656 L 336.023438 310.203125 "/>
<path style=" stroke:none;fill-rule:nonzero;fill:rgb(11.759949%,34.509277%,46.669006%);fill-opacity:1;" d="M 318.367188 305.160156 L 314.449219 304.039062 L 314.449219 299.703125 L 318.367188 300.480469 L 318.367188 305.160156 "/>
<path style=" stroke:none;fill-rule:nonzero;fill:rgb(14.118958%,35.289001%,45.489502%);fill-opacity:1;" d="M 339.878906 311.304688 L 336.023438 310.203125 L 336.023438 306.347656 L 339.847656 304.746094 L 350.503906 306.863281 L 339.878906 311.304688 "/>
<path style=" stroke:none;fill-rule:nonzero;fill:rgb(18.818665%,41.178894%,52.549744%);fill-opacity:1;" d="M 427.109375 299.3125 L 439.824219 284.980469 L 455.851562 278.335938 L 445.316406 291.703125 L 427.109375 299.3125 "/>
<path style=" stroke:none;fill-rule:nonzero;fill:rgb(3.919983%,19.219971%,32.939148%);fill-opacity:1;" d="M 476.085938 252.648438 L 476.085938 244.089844 L 536.484375 175.992188 L 476.085938 252.648438 "/>
<path style=" stroke:none;fill-rule:nonzero;fill:rgb(18.818665%,41.178894%,52.549744%);fill-opacity:1;" d="M 449.03125 274.597656 L 476.085938 244.089844 L 476.085938 252.648438 L 459.441406 273.777344 L 459.441406 270.28125 L 449.03125 274.597656 "/>
<path style=" stroke:none;fill-rule:nonzero;fill:rgb(14.118958%,35.289001%,45.489502%);fill-opacity:1;" d="M 361.933594 317.605469 L 352.601562 314.941406 L 365.027344 309.746094 L 375.675781 311.859375 L 361.933594 317.605469 "/>
<path style=" stroke:none;fill-rule:nonzero;fill:rgb(14.118958%,35.289001%,45.489502%);fill-opacity:1;" d="M 439.824219 284.980469 L 449.03125 274.597656 L 459.441406 270.28125 L 459.441406 273.777344 L 455.851562 278.335938 L 439.824219 284.980469 "/>
<path style=" stroke:none;fill-rule:nonzero;fill:rgb(14.118958%,35.289001%,45.489502%);fill-opacity:1;" d="M 383.984375 323.90625 L 374.648438 321.238281 L 390.1875 314.742188 L 391.550781 315.011719 L 391.550781 320.742188 L 383.984375 323.90625 "/>
<path style=" stroke:none;fill-rule:nonzero;fill:rgb(14.118958%,35.289001%,45.489502%);fill-opacity:1;" d="M 417.859375 309.746094 L 427.109375 299.3125 L 445.316406 291.703125 L 437.605469 301.492188 L 417.859375 309.746094 "/>
<path style=" stroke:none;fill-rule:nonzero;fill:rgb(14.118958%,35.289001%,45.489502%);fill-opacity:1;" d="M 404.164062 330.992188 C 403.0625 330.164062 401.554688 329.238281 399.496094 328.34375 L 396.710938 327.542969 L 415.277344 319.777344 L 415.277344 326.351562 L 404.164062 330.992188 "/>
<path style=" stroke:none;fill-rule:nonzero;fill:rgb(14.118958%,35.289001%,45.489502%);fill-opacity:1;" d="M 426.125 316.0625 L 426.125 315.246094 L 427.082031 314.847656 L 426.125 316.0625 "/>
<path style=" stroke:none;fill-rule:nonzero;fill:rgb(6.269836%,31.759644%,46.669006%);fill-opacity:1;" d="M 406.878906 333.863281 C 406.878906 333.863281 406.878906 333.859375 406.875 333.855469 C 406.878906 333.855469 406.878906 333.859375 406.882812 333.863281 C 406.882812 333.863281 406.882812 333.863281 406.878906 333.863281 "/>
<path style=" stroke:none;fill-rule:nonzero;fill:rgb(6.269836%,31.759644%,46.669006%);fill-opacity:1;" d="M 418.378906 331.796875 C 418.378906 331.796875 418.375 331.796875 418.371094 331.792969 C 418.371094 331.78125 418.375 331.765625 418.375 331.753906 C 418.375 331.765625 418.375 331.78125 418.378906 331.796875 M 419.804688 325.773438 C 421.535156 321.34375 424.140625 318.582031 424.140625 318.582031 L 426.125 316.0625 L 427.082031 314.847656 L 437.605469 301.492188 L 445.316406 291.703125 L 455.851562 278.335938 L 459.441406 273.777344 L 476.085938 252.648438 L 536.484375 175.992188 L 424.140625 318.582031 C 424.140625 318.582031 421.511719 321.925781 419.804688 325.773438 "/>
<path style=" stroke:none;fill-rule:nonzero;fill:rgb(5.099487%,24.708557%,41.178894%);fill-opacity:1;" d="M 406.882812 333.863281 C 406.882812 333.863281 406.882812 333.863281 406.878906 333.863281 C 406.882812 333.863281 406.882812 333.863281 406.882812 333.863281 C 406.886719 333.863281 406.886719 333.859375 406.890625 333.859375 C 406.886719 333.859375 406.882812 333.863281 406.882812 333.863281 "/>
<path style=" stroke:none;fill-rule:nonzero;fill:rgb(96.859741%,67.449951%,50.19989%);fill-opacity:1;" d="M 577.488281 232.238281 C 570.054688 230.132812 563.351562 226.652344 556.71875 222.925781 L 546.164062 277.71875 L 486.179688 349.390625 L 478.738281 353.777344 C 477.902344 354.128906 473.753906 360.9375 471.703125 364.238281 C 474.878906 366.722656 477.847656 364.042969 479.097656 362.609375 C 478.207031 364.496094 477.046875 367.675781 475.65625 372.410156 C 475.65625 372.410156 477.5 374.613281 481.269531 372.648438 C 481.269531 372.648438 483.691406 375.429688 486.414062 373.375 C 486.414062 373.375 488.570312 375.152344 490.902344 373.664062 C 490.902344 373.664062 493.519531 375.425781 494.847656 373.8125 L 495.84375 371.636719 L 495.882812 371.644531 C 495.988281 371.382812 496.097656 371.121094 496.203125 370.855469 L 496.789062 369.570312 C 496.839844 369.429688 496.847656 369.324219 496.882812 369.195312 C 499.082031 363.90625 501.648438 358.5 502.765625 356.175781 L 567.628906 292.726562 L 588.980469 234.207031 C 585.109375 233.90625 581.269531 233.308594 577.488281 232.238281 "/>
<path style=" stroke:none;fill-rule:nonzero;fill:rgb(9.01947%,12.159729%,18.03894%);fill-opacity:1;" d="M 571.03125 294.117188 L 599.542969 194.566406 C 599.542969 194.566406 609.367188 161.441406 588.976562 142.050781 C 588.976562 142.050781 564.21875 125.691406 558.4375 179.277344 L 541.652344 276.507812 C 542.574219 277.0625 486.0625 343.832031 486.585938 344.816406 C 490.53125 352.316406 495.914062 355.273438 504.644531 356.953125 C 505.617188 357.136719 570.027344 294.105469 571.03125 294.117188 "/>
<path style=" stroke:none;fill-rule:nonzero;fill:rgb(96.859741%,67.449951%,50.19989%);fill-opacity:1;" d="M 182.230469 628.410156 C 182.230469 628.410156 185.074219 586.738281 196.8125 549.175781 L 233.617188 549.175781 C 230.113281 562.28125 223.914062 584.847656 218.917969 599.890625 C 211.507812 622.1875 192.605469 672.507812 185.539062 707.839844 C 185.539062 707.839844 182.984375 720.273438 165.90625 708.746094 L 182.230469 628.410156 "/>
<path style=" stroke:none;fill-rule:nonzero;fill:rgb(77.648926%,21.179199%,26.269531%);fill-opacity:1;" d="M 230.328125 705.386719 C 230.328125 705.386719 233.304688 717.664062 196.46875 724.265625 L 188.179688 726.503906 C 182.160156 728.324219 177.539062 727.773438 175.34375 727.691406 C 175.34375 727.691406 166.25 726.226562 163.613281 723.140625 L 166.621094 704.125 C 166.621094 704.125 165.703125 712.144531 180.839844 712.480469 C 180.839844 712.480469 183.859375 712.597656 183.667969 711.160156 C 181.585938 710.199219 181.746094 709.136719 181.746094 709.136719 L 182.199219 704.496094 C 182.371094 703.214844 185.148438 703.300781 185.148438 703.300781 L 215.929688 701.347656 C 227.347656 700.175781 229.398438 702.558594 229.398438 702.558594 C 229.398438 702.558594 230.183594 703.429688 230.328125 705.386719 "/>
<path style=" stroke:none;fill-rule:nonzero;fill:rgb(61.569214%,12.548828%,17.248535%);fill-opacity:1;" d="M 166.621094 704.125 C 166.78125 712.785156 181.238281 712.480469 181.238281 712.480469 C 183.757812 712.46875 183.71875 711.167969 183.71875 711.167969 L 214.640625 707.996094 C 217.339844 707.5 218.261719 709.308594 218.261719 709.308594 L 220.117188 713.144531 L 216.609375 714.652344 C 209.210938 717.472656 201.410156 719.011719 193.789062 721.082031 C 191.527344 721.699219 189.226562 722.238281 186.925781 722.691406 C 184.523438 723.164062 182.074219 723.519531 179.621094 723.605469 C 178 723.660156 176.382812 723.601562 174.773438 723.382812 C 172.890625 723.125 171.054688 722.632812 169.292969 721.925781 C 168.785156 721.722656 164.183594 719.851562 164.246094 719.449219 L 166.621094 704.125 "/>
<path style=" stroke:none;fill-rule:nonzero;fill:rgb(100%,100%,100%);fill-opacity:1;" d="M 212.898438 702.144531 L 216.804688 701.660156 C 224.539062 701.183594 226.898438 701.609375 228.738281 702.734375 C 230.5 705.667969 222.144531 712.429688 220.164062 711.40625 C 220.164062 711.40625 214.632812 705.996094 212.898438 702.144531 "/>
<path style=" stroke:none;fill-rule:nonzero;fill:rgb(100%,100%,100%);fill-opacity:1;" d="M 230.484375 705.113281 C 230.484375 705.113281 233.363281 717.136719 197.53125 725.464844 C 192.371094 726.65625 187.28125 728.214844 181.988281 728.632812 C 176.855469 729.039062 171.550781 728.265625 166.898438 726 C 165.828125 725.480469 164.003906 724.429688 163.664062 723.148438 L 164.246094 719.449219 C 164.183594 719.851562 168.785156 721.722656 169.292969 721.925781 C 171.054688 722.632812 172.890625 723.125 174.773438 723.382812 C 176.382812 723.601562 178 723.660156 179.621094 723.605469 C 182.074219 723.519531 184.523438 723.164062 186.925781 722.691406 C 189.226562 722.238281 191.527344 721.699219 193.789062 721.082031 C 201.410156 719.011719 209.210938 717.472656 216.609375 714.652344 C 220.105469 713.320312 223.773438 711.683594 226.53125 709.109375 C 227.449219 708.25 228.625 706.789062 229.148438 705.652344 C 229.722656 704.414062 229.839844 703.265625 229.613281 702.875 C 229.613281 702.875 230.199219 703.648438 230.484375 705.113281 "/>
<path style=" stroke:none;fill-rule:nonzero;fill:rgb(76.469421%,84.709167%,87.838745%);fill-opacity:1;" d="M 200.191406 712.285156 C 200.664062 712.285156 201.046875 711.910156 201.054688 711.441406 C 201.117188 706.761719 204.394531 702.625 204.425781 702.582031 C 204.726562 702.214844 204.664062 701.667969 204.296875 701.371094 C 203.925781 701.074219 203.382812 701.132812 203.085938 701.5 C 202.933594 701.691406 199.40625 706.132812 199.332031 711.414062 C 199.324219 711.886719 199.703125 712.28125 200.183594 712.285156 L 200.191406 712.285156 "/>
<path style=" stroke:none;fill-rule:nonzero;fill:rgb(76.469421%,84.709167%,87.838745%);fill-opacity:1;" d="M 193.808594 712.777344 C 194.277344 712.777344 194.660156 712.402344 194.667969 711.925781 C 194.734375 707.296875 198.828125 703.136719 198.871094 703.101562 C 199.203125 702.761719 199.203125 702.21875 198.867188 701.878906 C 198.53125 701.546875 197.988281 701.542969 197.652344 701.878906 C 197.460938 702.070312 193.019531 706.570312 192.945312 711.910156 C 192.9375 712.378906 193.320312 712.769531 193.796875 712.777344 L 193.808594 712.777344 "/>
<path style=" stroke:none;fill-rule:nonzero;fill:rgb(76.469421%,84.709167%,87.838745%);fill-opacity:1;" d="M 187.40625 713.183594 C 187.878906 713.183594 188.261719 712.796875 188.269531 712.332031 C 188.332031 707.691406 192.429688 703.542969 192.46875 703.5 C 192.804688 703.164062 192.804688 702.617188 192.46875 702.28125 C 192.132812 701.945312 191.589844 701.945312 191.253906 702.28125 C 191.0625 702.476562 186.621094 706.976562 186.546875 712.304688 C 186.542969 712.78125 186.921875 713.175781 187.398438 713.183594 L 187.40625 713.183594 "/>
<path style=" stroke:none;fill-rule:nonzero;fill:rgb(69.018555%,76.078796%,79.219055%);fill-opacity:1;" d="M 212.382812 709.609375 C 212.433594 709.609375 212.484375 709.605469 212.539062 709.597656 C 213.007812 709.507812 213.316406 709.058594 213.230469 708.585938 C 212.648438 705.433594 210.414062 701.492188 210.320312 701.328125 C 210.085938 700.914062 209.566406 700.769531 209.148438 701.003906 C 208.734375 701.238281 208.589844 701.765625 208.824219 702.179688 C 208.847656 702.21875 211.007812 706.039062 211.535156 708.902344 C 211.613281 709.320312 211.976562 709.609375 212.382812 709.609375 "/>
<path style=" stroke:none;fill-rule:nonzero;fill:rgb(76.469421%,84.709167%,87.838745%);fill-opacity:1;" d="M 206.101562 711.1875 C 206.570312 711.1875 206.953125 710.816406 206.960938 710.339844 C 207.023438 705.710938 210.164062 702.382812 210.191406 702.347656 C 210.523438 702.007812 210.511719 701.464844 210.167969 701.132812 C 209.828125 700.804688 209.28125 700.8125 208.953125 701.15625 C 208.804688 701.308594 205.308594 704.996094 205.242188 710.316406 C 205.234375 710.792969 205.613281 711.179688 206.085938 711.1875 L 206.101562 711.1875 "/>
<path style=" stroke:none;fill-rule:nonzero;fill:rgb(100%,100%,100%);fill-opacity:1;" d="M 212.382812 709.609375 C 212.558594 709.609375 212.730469 709.558594 212.882812 709.449219 C 213.269531 709.171875 213.359375 708.640625 213.085938 708.246094 C 212.941406 708.046875 209.488281 703.253906 204.371094 701.265625 C 203.925781 701.09375 203.425781 701.3125 203.257812 701.757812 C 203.082031 702.195312 203.300781 702.695312 203.742188 702.867188 C 208.386719 704.675781 211.648438 709.203125 211.683594 709.246094 C 211.847656 709.480469 212.113281 709.609375 212.382812 709.609375 "/>
<path style=" stroke:none;fill-rule:nonzero;fill:rgb(100%,100%,100%);fill-opacity:1;" d="M 206.101562 711.1875 C 206.226562 711.1875 206.351562 711.160156 206.472656 711.101562 C 206.902344 710.898438 207.082031 710.382812 206.875 709.953125 C 206.75 709.695312 203.746094 703.574219 198.554688 701.558594 C 198.113281 701.378906 197.613281 701.601562 197.441406 702.042969 C 197.269531 702.488281 197.488281 702.984375 197.929688 703.152344 C 202.484375 704.929688 205.296875 710.644531 205.324219 710.703125 C 205.46875 711.011719 205.78125 711.1875 206.101562 711.1875 "/>
<path style=" stroke:none;fill-rule:nonzero;fill:rgb(100%,100%,100%);fill-opacity:1;" d="M 200.191406 712.285156 C 200.332031 712.285156 200.46875 712.253906 200.597656 712.191406 C 201.015625 711.96875 201.175781 711.441406 200.953125 711.023438 C 200.804688 710.742188 197.230469 704.097656 192.054688 702.082031 C 191.613281 701.910156 191.113281 702.125 190.941406 702.570312 C 190.769531 703.015625 190.988281 703.511719 191.433594 703.6875 C 196.015625 705.46875 199.398438 711.765625 199.433594 711.828125 C 199.585938 712.121094 199.886719 712.285156 200.191406 712.285156 "/>
<path style=" stroke:none;fill-rule:nonzero;fill:rgb(100%,100%,100%);fill-opacity:1;" d="M 193.796875 712.691406 C 193.933594 712.691406 194.074219 712.65625 194.199219 712.585938 C 194.621094 712.371094 194.777344 711.84375 194.550781 711.421875 C 194.410156 711.152344 190.949219 704.722656 186.972656 702.566406 C 186.554688 702.335938 186.03125 702.496094 185.804688 702.914062 C 185.578125 703.328125 185.734375 703.855469 186.148438 704.082031 C 189.671875 705.988281 193.003906 712.175781 193.035156 712.234375 C 193.191406 712.523438 193.488281 712.691406 193.796875 712.691406 "/>
<path style=" stroke:none;fill-rule:nonzero;fill:rgb(100%,100%,100%);fill-opacity:1;" d="M 189.496094 705.476562 C 191.566406 706.242188 194.734375 705.890625 196.445312 704.441406 C 196.921875 704.042969 197.089844 703.488281 196.992188 702.882812 C 196.734375 701.316406 195.265625 701.554688 194.1875 701.867188 C 192.160156 702.460938 191.589844 704.40625 190.199219 705.742188 C 189.558594 706.351562 188.570312 705.734375 188.757812 704.902344 C 189.203125 702.910156 189.453125 700.980469 189.019531 698.960938 C 188.960938 698.695312 188.613281 696.765625 188.074219 697.21875 C 187.53125 697.667969 187.554688 698.203125 187.554688 698.839844 C 187.539062 700.542969 188.082031 704.554688 189.703125 705.566406 C 190.640625 706.148438 189.777344 707.640625 188.835938 707.050781 C 187.398438 706.15625 186.859375 704.152344 186.425781 702.625 C 185.996094 701.105469 185.265625 698.378906 186.160156 696.882812 C 187.140625 695.246094 188.890625 694.597656 189.980469 696.414062 C 191.53125 699.007812 191.035156 702.589844 190.417969 705.359375 C 189.941406 705.082031 189.460938 704.804688 188.984375 704.519531 C 190.042969 703.5 190.578125 702.117188 191.75 701.1875 C 192.59375 700.519531 193.832031 700.0625 194.898438 699.941406 C 197.171875 699.691406 198.6875 701.070312 198.75 703.363281 C 198.855469 707.457031 191.75 708.140625 189.039062 707.136719 C 188.007812 706.753906 188.453125 705.089844 189.496094 705.476562 "/>
<path style=" stroke:none;fill-rule:nonzero;fill:rgb(96.859741%,67.449951%,50.19989%);fill-opacity:1;" d="M 233.425781 552.042969 L 198.28125 552.042969 C 198.632812 548.46875 199.074219 544.941406 199.621094 541.476562 L 190.652344 474.832031 L 239.566406 474.832031 L 233.691406 539.910156 C 233.691406 539.910156 233.609375 544.75 233.425781 552.042969 "/>
<path style=" stroke:none;fill-rule:nonzero;fill:rgb(9.01947%,21.179199%,40.779114%);fill-opacity:1;" d="M 196.992188 541.339844 C 197.039062 540.859375 197.082031 540.394531 197.132812 539.910156 L 180.914062 414.253906 L 246.113281 424.398438 L 233.578125 545.542969 C 233.578125 545.542969 233.617188 547.945312 233.632812 552.042969 L 233.425781 552.042969 C 233.425781 552.042969 204.328125 675.386719 190.886719 709.585938 L 190.875 709.636719 C 178.914062 709.542969 174.171875 710.136719 166.632812 700.527344 C 167.332031 677.371094 184.15625 577.9375 196.984375 541.339844 L 196.992188 541.339844 "/>
<path style=" stroke:none;fill-rule:nonzero;fill:rgb(6.269836%,15.289307%,29.40979%);fill-opacity:1;" d="M 220.308594 552.226562 C 220.976562 546.886719 221.125 541.480469 221.351562 536.078125 C 221.746094 526.761719 220.652344 517.40625 219.507812 508.179688 C 218.332031 498.65625 217.941406 488.925781 215.734375 479.566406 C 214.265625 473.320312 211.960938 459.214844 207.769531 454.195312 C 202.320312 447.664062 188.546875 438.128906 182.464844 426.253906 L 180.914062 414.253906 L 246.113281 424.398438 L 233.578125 545.542969 C 233.578125 545.542969 233.617188 547.945312 233.632812 552.042969 C 233.632812 552.042969 226.1875 582.335938 220.304688 600.089844 C 220.304688 600.089844 194.085938 704.359375 190.875 709.636719 C 190.875 709.636719 174.925781 713.210938 166.632812 700.527344 C 166.632812 700.527344 186.53125 710.015625 191.695312 697.101562 C 193.257812 690.007812 209.746094 601.570312 211.242188 594.464844 C 213.613281 583.203125 215.789062 571.765625 218.71875 560.648438 C 219.453125 557.863281 219.949219 555.054688 220.308594 552.226562 "/>
<path style=" stroke:none;fill-rule:nonzero;fill:rgb(96.859741%,67.449951%,50.19989%);fill-opacity:1;" d="M 246.773438 735.761719 L 242.550781 653.355469 C 242.550781 653.355469 231.121094 578.0625 237.605469 553.457031 L 231.121094 488.371094 L 280.03125 488.371094 L 274.160156 553.457031 C 274.160156 553.457031 273.5 593.609375 271.527344 617.027344 C 269.546875 640.449219 262.769531 698.222656 264.183594 734.230469 C 264.183594 734.230469 256.847656 740.316406 246.773438 735.761719 "/>
<path style=" stroke:none;fill-rule:nonzero;fill:rgb(95.689392%,67.449951%,49.798584%);fill-opacity:1;" d="M 177.375 293.667969 C 177.375 293.667969 189.558594 308.019531 213.785156 342.648438 L 209.597656 349.742188 C 209.597656 349.742188 168.097656 328.839844 154.863281 305.382812 L 177.375 293.667969 "/>
<path style=" stroke:none;fill-rule:nonzero;fill:rgb(95.689392%,67.449951%,49.798584%);fill-opacity:1;" d="M 211.671875 242.34375 C 211.671875 242.34375 180.4375 310.507812 161.671875 307.914062 C 161.671875 307.914062 155.203125 308.324219 153.902344 303.445312 C 153.902344 303.445312 140.652344 291.695312 195.746094 206.9375 C 195.746094 206.9375 201.125 199.734375 212.15625 201.59375 C 212.15625 201.59375 228.886719 212.648438 211.671875 242.34375 "/>
<path style=" stroke:none;fill-rule:nonzero;fill:rgb(95.689392%,67.449951%,49.798584%);fill-opacity:1;" d="M 228.425781 224.882812 L 262.191406 224.882812 L 262.191406 188.988281 L 228.425781 188.988281 L 228.425781 224.882812 "/>
<path style=" stroke:none;fill-rule:nonzero;fill:rgb(96.859741%,67.449951%,50.19989%);fill-opacity:1;" d="M 283.082031 197.617188 L 284.351562 191.289062 L 286.878906 168.09375 C 287.195312 165.179688 286.613281 161.453125 285.628906 158.679688 C 284.550781 155.65625 283.648438 152.460938 283.90625 149.042969 C 285.171875 132.460938 275.492188 124.808594 275.492188 124.808594 C 263.964844 111.3125 241.765625 114.546875 241.757812 114.546875 C 230.28125 116.949219 220.445312 122.304688 215.277344 133.1875 C 210.59375 143.054688 208.414062 154.894531 212.117188 165.402344 C 216.171875 176.933594 223.253906 185.714844 232.414062 193.53125 C 238.273438 198.535156 243.992188 198.867188 251.421875 201.121094 C 256.59375 202.6875 266.351562 203.21875 271.730469 202.949219 C 274.558594 202.804688 282.355469 201.253906 283.082031 197.617188 "/>
<path style=" stroke:none;fill-rule:nonzero;fill:rgb(71.369934%,30.589294%,25.099182%);fill-opacity:1;" d="M 267.707031 170.351562 C 266.039062 167.988281 259.96875 166.53125 259.964844 166.53125 C 252.632812 166.527344 253.597656 176.3125 252.90625 180.550781 C 252.679688 181.929688 252.414062 183.351562 252.101562 184.761719 C 248.605469 197.195312 238.152344 197.097656 229.21875 198.601562 C 228.886719 198.40625 228.535156 198.207031 228.171875 198.003906 C 226.554688 192.488281 221.40625 186.761719 221.40625 186.761719 C 207.992188 175.160156 203.613281 154.3125 208.71875 137.90625 C 210.269531 132.941406 213.566406 127.671875 217.09375 123.894531 C 224.597656 115.859375 234.371094 111.5625 244.828125 109.59375 C 255.214844 107.644531 292.378906 112.683594 282.238281 135.257812 C 282.238281 135.257812 266.949219 152.894531 267.707031 170.351562 "/>
<path style=" stroke:none;fill-rule:nonzero;fill:rgb(9.01947%,21.179199%,40.779114%);fill-opacity:1;" d="M 222.761719 442.289062 C 214.140625 439.496094 199.628906 435.027344 190.652344 428.371094 C 177.730469 418.800781 179.453125 406.992188 182.15625 391.953125 C 183.117188 386.597656 202.179688 343.25 204.003906 344.777344 C 204.019531 344.789062 224.425781 361.828125 283.980469 364.230469 C 283.980469 364.230469 300.945312 400.984375 296.109375 421.941406 C 296.109375 421.941406 294.550781 433.300781 293.515625 446.523438 C 277.277344 468.636719 249.078125 450.828125 222.761719 442.289062 "/>
<path style=" stroke:none;fill-rule:nonzero;fill:rgb(6.269836%,15.289307%,29.40979%);fill-opacity:1;" d="M 281.003906 430.507812 C 280.964844 412.167969 280.4375 390.089844 268.839844 374.890625 C 262.503906 366.585938 252.785156 363.359375 243.175781 360.347656 C 240.03125 359.367188 236.90625 358.394531 233.820312 357.367188 C 246.011719 360.570312 262.417969 363.359375 283.980469 364.230469 C 283.980469 364.230469 300.945312 400.984375 296.109375 421.941406 C 296.109375 421.941406 294.550781 433.300781 293.515625 446.523438 C 289.167969 452.441406 284.0625 456.476562 278.40625 459.074219 C 280.003906 449.632812 281.023438 440.125 281.003906 430.507812 "/>
<path style=" stroke:none;fill-rule:nonzero;fill:rgb(9.01947%,21.179199%,40.779114%);fill-opacity:1;" d="M 222.761719 442.289062 L 293.515625 446.523438 L 277.492188 533.710938 C 277.492188 533.710938 277.492188 581.25 273.257812 625.125 L 268.84375 725.1875 C 258.285156 729.308594 253.0625 730.40625 243.007812 725.1875 C 237.660156 701.160156 231.121094 580.671875 237.605469 553.457031 L 222.761719 442.289062 "/>
<path style=" stroke:none;fill-rule:nonzero;fill:rgb(6.269836%,15.289307%,29.40979%);fill-opacity:1;" d="M 268.84375 725.1875 C 266.496094 726.105469 266.496094 726.105469 264.953125 726.324219 C 264.476562 722.226562 264.195312 720.558594 263.96875 716.761719 C 263.152344 703.0625 263.238281 613.160156 262.03125 599.429688 C 260.734375 584.691406 258.804688 569.847656 259.296875 555.023438 C 259.78125 540.40625 262.734375 525.964844 266.144531 511.78125 C 271.324219 490.246094 277.84375 468.636719 280.148438 446.523438 L 293.515625 446.523438 L 277.492188 533.710938 C 277.492188 533.710938 277.492188 581.25 273.257812 625.125 L 268.84375 725.1875 "/>
<path style=" stroke:none;fill-rule:nonzero;fill:rgb(96.859741%,67.449951%,50.19989%);fill-opacity:1;" d="M 267.703125 170.351562 C 266.382812 167 263.109375 164.417969 259.425781 165.515625 C 256.730469 166.324219 255.117188 168.699219 255.386719 171.480469 C 255.441406 172.082031 255.574219 172.671875 255.628906 173.28125 C 256.695312 179.71875 263.484375 182.167969 263.484375 182.167969 "/>
<path style=" stroke:none;fill-rule:nonzero;fill:rgb(87.449646%,57.249451%,44.309998%);fill-opacity:1;" d="M 260.113281 168.554688 C 260.484375 168.289062 261.265625 168.140625 261.746094 168.109375 C 264.207031 167.957031 266.191406 171.75 263.730469 172.429688 C 262.800781 173.328125 263.765625 174.378906 263.765625 174.378906 C 264.613281 175.296875 265.746094 176.621094 265.492188 177.917969 C 265.339844 178.6875 264.484375 179.097656 263.710938 179.289062 C 263.09375 179.445312 262.96875 178.957031 263.460938 178.726562 C 263.835938 178.546875 264.152344 178.265625 264.398438 177.957031 C 264.421875 177.914062 264.445312 177.871094 264.46875 177.828125 C 264.5 177.800781 264.515625 177.765625 264.53125 177.730469 C 264.609375 177.542969 264.609375 177.355469 264.558594 177.167969 C 264 177.5625 263.074219 177.652344 262.648438 177.140625 C 262.183594 176.582031 262.535156 175.703125 262.375 175.0625 C 262.257812 174.617188 262.050781 174.191406 261.808594 173.785156 C 260.679688 171.90625 262.710938 171.589844 262.710938 171.589844 C 263.019531 171.597656 263.261719 171.617188 263.457031 171.640625 C 264.492188 171.109375 263.339844 169.558594 262.710938 169.316406 C 261.980469 169.023438 261.085938 169.125 260.5625 169.6875 C 260.046875 170.257812 259.832031 171.140625 259.882812 171.859375 C 259.9375 172.757812 260.160156 173.648438 260.550781 174.460938 C 260.773438 174.929688 261.054688 175.472656 261.28125 175.941406 C 261.539062 176.464844 260.921875 176.707031 260.667969 176.171875 C 260.125 175.0625 259.125 173.425781 258.914062 171.882812 C 258.734375 170.605469 258.964844 169.378906 260.113281 168.554688 "/>
<path style=" stroke:none;fill-rule:nonzero;fill:rgb(87.449646%,57.249451%,44.309998%);fill-opacity:1;" d="M 267.703125 170.351562 C 267.703125 170.351562 267.410156 169.929688 266.929688 169.171875 C 266.707031 168.777344 266.285156 168.441406 265.90625 167.992188 C 265.546875 167.585938 264.898438 167.128906 264.347656 166.78125 C 263.722656 166.457031 263.023438 166.121094 262.242188 166.019531 C 261.476562 165.921875 260.652344 165.921875 259.84375 166.183594 C 259.574219 166.253906 258.945312 166.515625 258.628906 166.707031 C 258.296875 166.910156 257.972656 167.136719 257.65625 167.445312 C 257.050781 168.039062 256.578125 168.785156 256.371094 169.632812 C 256.164062 170.488281 256.164062 171.300781 256.328125 172.347656 L 256.421875 173.089844 L 256.429688 173.183594 L 256.429688 173.199219 C 256.425781 173.152344 256.449219 173.300781 256.417969 173.105469 L 256.421875 173.132812 L 256.429688 173.171875 L 256.464844 173.351562 L 256.539062 173.71875 C 256.617188 174.226562 256.761719 174.617188 256.886719 175.019531 C 257.1875 175.828125 257.570312 176.621094 258.035156 177.296875 C 258.480469 177.996094 259.011719 178.585938 259.511719 179.132812 C 260.542969 180.1875 261.550781 180.957031 262.292969 181.4375 C 263.027344 181.925781 263.484375 182.167969 263.484375 182.167969 C 263.484375 182.167969 262.976562 182.070312 262.140625 181.730469 C 261.316406 181.371094 260.105469 180.84375 258.863281 179.855469 C 258.25 179.355469 257.585938 178.785156 257.019531 178.050781 C 256.421875 177.339844 255.898438 176.507812 255.496094 175.542969 C 255.300781 175.046875 255.09375 174.523438 255.003906 174.066406 L 254.90625 173.710938 L 254.863281 173.527344 L 254.851562 173.484375 L 254.828125 173.335938 L 254.808594 173.246094 L 254.699219 172.503906 C 254.523438 171.582031 254.453125 170.324219 254.730469 169.195312 C 255.039062 168.058594 255.703125 167.035156 256.542969 166.246094 C 256.761719 166.066406 256.96875 165.871094 257.207031 165.703125 L 257.984375 165.269531 C 258.53125 165.019531 258.820312 164.910156 259.46875 164.746094 C 260.507812 164.460938 261.582031 164.566406 262.515625 164.789062 C 263.46875 165.003906 264.238281 165.515625 264.898438 165.984375 C 265.574219 166.546875 266.011719 167.003906 266.390625 167.589844 C 266.71875 168.160156 267.078125 168.601562 267.222656 169.023438 C 267.542969 169.863281 267.703125 170.351562 267.703125 170.351562 "/>
<path style=" stroke:none;fill-rule:nonzero;fill:rgb(100%,100%,100%);fill-opacity:1;" d="M 263.480469 180.597656 C 263.480469 181.726562 264.398438 182.644531 265.53125 182.644531 C 266.65625 182.644531 267.574219 181.726562 267.574219 180.597656 C 267.574219 179.464844 266.65625 178.550781 265.53125 178.550781 C 264.398438 178.550781 263.480469 179.464844 263.480469 180.597656 "/>
<path style=" stroke:none;fill-rule:nonzero;fill:rgb(91.369629%,91.369629%,91.369629%);fill-opacity:1;" d="M 265.039062 181.691406 C 265.933594 181.691406 266.65625 180.960938 266.65625 180.070312 C 266.65625 179.351562 266.179688 178.761719 265.53125 178.550781 C 266.65625 178.550781 267.574219 179.464844 267.574219 180.597656 C 267.574219 181.726562 266.65625 182.644531 265.53125 182.644531 C 264.398438 182.644531 263.480469 181.726562 263.480469 180.597656 C 263.480469 180.546875 263.496094 180.5 263.5 180.449219 C 263.671875 181.152344 264.28125 181.691406 265.039062 181.691406 "/>
<path style=" stroke:none;fill-rule:nonzero;fill:rgb(77.648926%,21.179199%,26.269531%);fill-opacity:1;" d="M 309.421875 727.726562 C 309.421875 727.726562 312.085938 740.074219 275.097656 745.738281 L 266.757812 747.769531 C 260.695312 749.441406 256.09375 748.777344 253.894531 748.632812 C 253.894531 748.632812 244.839844 746.945312 242.28125 743.792969 L 245.769531 724.855469 C 245.769531 724.855469 244.648438 732.859375 259.773438 733.570312 C 259.773438 733.570312 262.785156 733.769531 262.636719 732.328125 C 260.578125 731.308594 260.761719 730.253906 260.761719 730.253906 L 261.332031 725.621094 C 261.539062 724.347656 264.3125 724.5 264.3125 724.5 L 295.132812 723.328125 C 306.574219 722.445312 308.570312 724.875 308.570312 724.875 C 308.570312 724.875 309.328125 725.765625 309.421875 727.726562 "/>
<path style=" stroke:none;fill-rule:nonzero;fill:rgb(61.569214%,12.548828%,17.248535%);fill-opacity:1;" d="M 245.769531 724.855469 C 245.714844 733.523438 260.171875 733.578125 260.171875 733.578125 C 262.691406 733.628906 262.6875 732.335938 262.6875 732.335938 L 293.675781 729.945312 C 296.386719 729.511719 297.265625 731.339844 297.265625 731.339844 L 299.023438 735.222656 L 295.476562 736.644531 C 288.011719 739.277344 280.171875 740.613281 272.503906 742.496094 C 270.222656 743.058594 267.914062 743.539062 265.601562 743.933594 C 263.191406 744.34375 260.726562 744.632812 258.273438 744.664062 C 256.652344 744.675781 255.039062 744.578125 253.441406 744.316406 C 251.5625 744.011719 249.738281 743.464844 247.992188 742.71875 C 247.488281 742.503906 242.941406 740.519531 243.011719 740.117188 L 245.769531 724.855469 "/>
<path style=" stroke:none;fill-rule:nonzero;fill:rgb(100%,100%,100%);fill-opacity:1;" d="M 292.082031 724.046875 L 295.996094 723.65625 C 303.746094 723.382812 306.09375 723.863281 307.902344 725.035156 C 309.589844 728.011719 301.070312 734.5625 299.113281 733.484375 C 299.113281 733.484375 293.71875 727.945312 292.082031 724.046875 "/>
<path style=" stroke:none;fill-rule:nonzero;fill:rgb(100%,100%,100%);fill-opacity:1;" d="M 309.589844 727.453125 C 309.589844 727.453125 312.164062 739.546875 276.128906 746.96875 C 270.941406 748.039062 265.820312 749.46875 260.515625 749.746094 C 255.371094 750.019531 250.089844 749.117188 245.5 746.738281 C 244.4375 746.1875 242.640625 745.09375 242.335938 743.800781 L 243.011719 740.117188 C 242.941406 740.519531 247.488281 742.503906 247.992188 742.71875 C 249.738281 743.464844 251.5625 744.011719 253.441406 744.316406 C 255.039062 744.578125 256.652344 744.675781 258.273438 744.664062 C 260.726562 744.632812 263.191406 744.34375 265.601562 743.933594 C 267.914062 743.539062 270.222656 743.058594 272.503906 742.496094 C 280.171875 740.613281 288.011719 739.277344 295.476562 736.644531 C 299.007812 735.398438 302.714844 733.859375 305.53125 731.347656 C 306.476562 730.515625 307.683594 729.089844 308.242188 727.957031 C 308.84375 726.738281 308.988281 725.59375 308.773438 725.1875 C 308.773438 725.1875 309.339844 725.984375 309.589844 727.453125 "/>
<path style=" stroke:none;fill-rule:nonzero;fill:rgb(76.469421%,84.709167%,87.838745%);fill-opacity:1;" d="M 279.148438 733.867188 C 279.605469 733.867188 279.988281 733.5 280.007812 733.039062 C 280.191406 728.367188 283.570312 724.3125 283.605469 724.265625 C 283.910156 723.90625 283.863281 723.363281 283.503906 723.058594 C 283.140625 722.75 282.597656 722.796875 282.292969 723.15625 C 282.136719 723.339844 278.492188 727.691406 278.289062 732.972656 C 278.273438 733.445312 278.640625 733.847656 279.117188 733.863281 L 279.148438 733.867188 "/>
<path style=" stroke:none;fill-rule:nonzero;fill:rgb(76.469421%,84.709167%,87.838745%);fill-opacity:1;" d="M 272.75 734.191406 C 273.210938 734.191406 273.59375 733.828125 273.613281 733.363281 C 273.792969 728.722656 277.992188 724.683594 278.03125 724.644531 C 278.378906 724.316406 278.390625 723.769531 278.066406 723.425781 C 277.734375 723.082031 277.191406 723.066406 276.847656 723.398438 C 276.652344 723.578125 272.101562 727.96875 271.890625 733.300781 C 271.875 733.769531 272.246094 734.171875 272.71875 734.191406 L 272.75 734.191406 "/>
<path style=" stroke:none;fill-rule:nonzero;fill:rgb(76.469421%,84.709167%,87.838745%);fill-opacity:1;" d="M 266.347656 734.433594 C 266.804688 734.433594 267.1875 734.070312 267.207031 733.609375 C 267.386719 728.96875 271.582031 724.925781 271.625 724.882812 C 271.96875 724.558594 271.988281 724.015625 271.65625 723.671875 C 271.332031 723.328125 270.785156 723.308594 270.4375 723.636719 C 262.066406 731.648438 265.886719 723.140625 265.488281 733.542969 C 265.464844 734.015625 265.835938 734.414062 266.308594 734.429688 L 266.347656 734.433594 "/>
<path style=" stroke:none;fill-rule:nonzero;fill:rgb(69.018555%,76.078796%,79.219055%);fill-opacity:1;" d="M 291.398438 731.492188 C 291.445312 731.492188 291.488281 731.492188 291.535156 731.484375 C 292.003906 731.410156 292.324219 730.96875 292.25 730.5 C 291.746094 727.328125 289.617188 723.332031 289.527344 723.164062 C 289.304688 722.742188 288.777344 722.585938 288.359375 722.8125 C 287.941406 723.035156 287.785156 723.558594 288.007812 723.976562 C 288.027344 724.015625 290.09375 727.894531 290.550781 730.769531 C 290.617188 731.195312 290.984375 731.492188 291.398438 731.492188 "/>
<path style=" stroke:none;fill-rule:nonzero;fill:rgb(76.469421%,84.709167%,87.838745%);fill-opacity:1;" d="M 285.082031 732.914062 C 285.539062 732.914062 285.921875 732.554688 285.941406 732.089844 C 286.121094 727.441406 289.339844 724.214844 289.375 724.179688 C 289.707031 723.851562 289.714844 723.308594 289.378906 722.964844 C 289.046875 722.628906 288.503906 722.625 288.160156 722.953125 C 288.011719 723.105469 284.425781 726.703125 284.21875 732.019531 C 284.199219 732.492188 284.570312 732.898438 285.046875 732.914062 L 285.082031 732.914062 "/>
<path style=" stroke:none;fill-rule:nonzero;fill:rgb(100%,100%,100%);fill-opacity:1;" d="M 291.402344 731.492188 C 291.566406 731.492188 291.734375 731.445312 291.882812 731.347656 C 292.273438 731.082031 292.378906 730.546875 292.113281 730.152344 C 291.972656 729.945312 288.644531 725.070312 283.582031 722.953125 C 283.140625 722.765625 282.632812 722.976562 282.453125 723.414062 C 282.269531 723.851562 282.476562 724.355469 282.914062 724.539062 C 287.496094 726.457031 290.65625 731.070312 290.683594 731.117188 C 290.851562 731.363281 291.125 731.492188 291.402344 731.492188 "/>
<path style=" stroke:none;fill-rule:nonzero;fill:rgb(100%,100%,100%);fill-opacity:1;" d="M 285.082031 732.914062 C 285.199219 732.914062 285.316406 732.894531 285.4375 732.839844 C 285.867188 732.644531 286.0625 732.132812 285.863281 731.699219 C 285.746094 731.441406 282.902344 725.246094 277.757812 723.097656 C 277.320312 722.910156 276.816406 723.117188 276.632812 723.558594 C 276.449219 723.996094 276.65625 724.5 277.09375 724.683594 C 281.601562 726.570312 284.269531 732.351562 284.296875 732.410156 C 284.441406 732.726562 284.753906 732.914062 285.082031 732.914062 "/>
<path style=" stroke:none;fill-rule:nonzero;fill:rgb(100%,100%,100%);fill-opacity:1;" d="M 279.148438 733.867188 C 279.273438 733.867188 279.40625 733.835938 279.53125 733.777344 C 279.957031 733.5625 280.128906 733.050781 279.917969 732.621094 C 279.777344 732.335938 276.371094 725.597656 271.25 723.457031 C 270.8125 723.269531 270.304688 723.480469 270.121094 723.914062 C 269.9375 724.355469 270.144531 724.859375 270.582031 725.046875 C 275.113281 726.941406 278.34375 733.324219 278.378906 733.390625 C 278.53125 733.691406 278.832031 733.867188 279.148438 733.867188 "/>
<path style=" stroke:none;fill-rule:nonzero;fill:rgb(100%,100%,100%);fill-opacity:1;" d="M 272.742188 734.109375 C 272.871094 734.109375 273 734.078125 273.125 734.015625 C 273.550781 733.804688 273.722656 733.285156 273.507812 732.859375 C 273.371094 732.589844 270.074219 726.070312 266.15625 723.816406 C 265.742188 723.578125 265.21875 723.714844 264.976562 724.132812 C 264.738281 724.542969 264.882812 725.070312 265.296875 725.304688 C 268.769531 727.300781 271.9375 733.570312 271.972656 733.628906 C 272.121094 733.933594 272.425781 734.109375 272.742188 734.109375 "/>
<path style=" stroke:none;fill-rule:nonzero;fill:rgb(100%,100%,100%);fill-opacity:1;" d="M 268.582031 726.78125 C 270.644531 727.605469 273.914062 727.351562 275.636719 725.875 C 276.085938 725.492188 276.246094 724.960938 276.160156 724.382812 C 275.933594 722.824219 274.492188 723 273.40625 723.292969 C 271.363281 723.832031 270.742188 725.75 269.3125 727.046875 C 268.679688 727.632812 267.660156 727.074219 267.875 726.214844 C 268.417969 724.050781 268.691406 721.980469 268.179688 719.769531 C 268.058594 719.265625 267.53125 717.632812 266.964844 719 C 266.792969 719.417969 266.828125 719.925781 266.832031 720.367188 C 266.835938 722.007812 267.246094 725.859375 268.789062 726.867188 C 269.710938 727.472656 268.851562 728.964844 267.921875 728.355469 C 266.441406 727.390625 265.941406 725.246094 265.554688 723.640625 C 265.199219 722.160156 264.574219 719.535156 265.480469 718.128906 C 266.484375 716.546875 268.257812 715.867188 269.304688 717.71875 C 270.789062 720.355469 270.222656 723.914062 269.535156 726.671875 C 269.054688 726.394531 268.578125 726.113281 268.09375 725.832031 C 269.085938 724.929688 269.601562 723.585938 270.679688 722.773438 C 271.65625 722.035156 272.886719 721.492188 274.117188 721.386719 C 276.425781 721.195312 278.164062 722.761719 277.871094 725.160156 C 277.402344 729.003906 270.902344 729.558594 268.125 728.441406 C 267.109375 728.03125 267.550781 726.371094 268.582031 726.78125 "/>
<path style=" stroke:none;fill-rule:nonzero;fill:rgb(11.759949%,18.03894%,45.489502%);fill-opacity:1;" d="M 286.886719 371.136719 L 282.429688 351.167969 L 280.140625 331.871094 L 293.148438 254.183594 C 294.527344 244.722656 291.875 239.105469 287.488281 235.496094 C 283.265625 232.019531 267.007812 223.898438 262.191406 221.292969 C 262.191406 221.292969 258.015625 226.4375 239.945312 218.632812 C 239.945312 218.632812 226.804688 213.742188 228.425781 206.125 C 222.894531 204.347656 221.128906 203.101562 212.15625 201.59375 C 199.441406 199.464844 198.792969 211.390625 197.382812 220.78125 L 209.300781 302.75 C 209.300781 302.75 213.214844 318.386719 211.476562 326.253906 C 211.476562 326.253906 208.339844 334.921875 201.480469 347.953125 C 201.480469 347.953125 223.109375 367.609375 288.246094 371.136719 "/>
<path style=" stroke:none;fill-rule:nonzero;fill:rgb(96.859741%,67.449951%,50.19989%);fill-opacity:1;" d="M 287.488281 235.496094 C 287.488281 235.496094 300.335938 239.625 302.628906 265.488281 L 302.847656 359.855469 L 276.367188 361.855469 L 265.53125 280.554688 C 265.53125 280.554688 261.53125 232.453125 287.488281 235.496094 "/>
<path style=" stroke:none;fill-rule:nonzero;fill:rgb(96.859741%,67.449951%,50.19989%);fill-opacity:1;" d="M 301.0625 351.144531 L 372.292969 391.789062 C 376.273438 390.785156 381.472656 391.273438 383.628906 391.824219 C 386.257812 392.492188 388.539062 397.265625 392.34375 398.492188 C 395.683594 399.558594 399.074219 399.5 402.648438 399.167969 L 400.8125 403.269531 C 396.910156 410.265625 393.753906 412.621094 384.640625 414.871094 C 379.613281 416.113281 374.0625 409.394531 371.082031 405.199219 L 317.648438 388.800781 C 291.066406 381.179688 280.675781 369.777344 280.675781 369.777344 C 280.675781 369.777344 269.136719 361.480469 284.261719 349.691406 C 284.261719 349.691406 291.140625 344.4375 301.0625 351.144531 "/>
<path style=" stroke:none;fill-rule:nonzero;fill:rgb(71.369934%,30.589294%,25.099182%);fill-opacity:1;" d="M 276.363281 138.511719 L 274.878906 185.523438 C 274.878906 185.523438 271.335938 216.214844 286.96875 222.125 C 286.96875 222.125 213.785156 238.472656 208.257812 193.769531 C 208.257812 193.769531 200.0625 163.125 208.71875 137.90625 C 208.71875 137.90625 250.136719 105.804688 276.363281 138.511719 "/>
</g>
</svg>
